<?xml version="1.0" encoding="UTF-8"?>
<svg version="1.1" xmlns="http://www.w3.org/2000/svg" width="150" height="150">
<path d="M0 0 C0.99 1.485 0.99 1.485 2 3 C2.54527344 2.855625 3.09054688 2.71125 3.65234375 2.5625 C9.04747737 1.23446711 14.44572104 0.08909825 20 1 C22.5625 2.75 22.5625 2.75 24 5 C24 6.32 24 7.64 24 9 C28.95 9.99 28.95 9.99 34 11 C33.67 12.32 33.34 13.64 33 15 C33.556875 15.12375 34.11375 15.2475 34.6875 15.375 C37.22114364 16.05976855 39.57921032 16.99133763 42 18 C42 17.34 42 16.68 42 16 C42.66 16 43.32 16 44 16 C43.49396008 18.16874252 43.00016187 19.99967627 42 22 C42.7425 22.28875 43.485 22.5775 44.25 22.875 C46.56739797 23.82302644 48.77917115 24.84845911 51 26 C50.814375 27.0828125 50.814375 27.0828125 50.625 28.1875 C50.71546822 31.32673947 50.71546822 31.32673947 53.9375 33.375 C54.77474609 33.99181641 54.77474609 33.99181641 55.62890625 34.62109375 C57 36 57 36 57.375 39.4375 C57.60530041 42.99595845 57.60530041 42.99595845 59.7890625 44.5 C60.51867187 44.974375 61.24828125 45.44875 62 45.9375 C65.76850533 48.47464452 65.76850533 48.47464452 66.85546875 50.94140625 C67.45338128 54.64846394 67.23355716 56.54261724 65.5 59.9375 C63.42382797 64.17635123 64.164399 67.46963316 65 72 C64.01 72.495 64.01 72.495 63 73 C63.33 76.3 63.66 79.6 64 83 C62.68 83.33 61.36 83.66 60 84 C60 87.63 60 91.26 60 95 C58.68 94.67 57.36 94.34 56 94 C55.855625 95.258125 55.71125 96.51625 55.5625 97.8125 C55.26251314 100.42667123 54.84186703 102.47439892 54 105 C53.01 105 52.02 105 51 105 C50.01 107.97 49.02 110.94 48 114 C46.35 113.67 44.7 113.34 43 113 C42.896875 113.7425 42.79375 114.485 42.6875 115.25 C41.95066203 118.1973519 41.05200858 119.78383074 39 122 C38.34 122 37.68 122 37 122 C37 122.66 37 123.32 37 124 C29.77130045 128.01793722 29.77130045 128.01793722 26.3125 127.9375 C22.71095958 128.03483893 21.38610067 130.48831509 19 133 C18.01 133 17.02 133 16 133 C16 132.34 16 131.68 16 131 C15.37351562 131.28875 14.74703125 131.5775 14.1015625 131.875 C12.87566406 132.431875 12.87566406 132.431875 11.625 133 C10.40683594 133.556875 10.40683594 133.556875 9.1640625 134.125 C7 135 7 135 5 135 C4.34 134.34 3.68 133.68 3 133 C1.906875 133.495 0.81375 133.99 -0.3125 134.5 C-4 136 -4 136 -7 136 C-7 135.01 -7 134.02 -7 133 C-12.445 133.99 -12.445 133.99 -18 135 C-18.33 134.01 -18.66 133.02 -19 132 C-22.3 131.67 -25.6 131.34 -29 131 C-29 129.68 -29 128.36 -29 127 C-30.31355469 126.87882812 -31.62710938 126.75765625 -32.98046875 126.6328125 C-34.71618387 126.46393211 -36.45185892 126.29463961 -38.1875 126.125 C-39.05181641 126.04636719 -39.91613281 125.96773438 -40.80664062 125.88671875 C-47.50152161 125.21979574 -52.51211413 124.41641398 -57 119 C-59.21855193 115.40805879 -58.9264235 112.95751832 -58.3125 108.9375 C-57.90217558 106.37440904 -57.90217558 106.37440904 -58 104 C-60.24122355 101.30211406 -60.24122355 101.30211406 -63 100 C-62.731875 99.46375 -62.46375 98.9275 -62.1875 98.375 C-61.69205804 95.66148833 -61.69205804 95.66148833 -64.5 93.0625 C-65.325 92.051875 -66.15 91.04125 -67 90 C-66.69972883 88.32706064 -66.36442233 86.66014616 -66 85 C-67.11637778 82.50711758 -68.55106816 80.32707235 -70 78 C-70 77.34 -70 76.68 -70 76 C-69.01 75.505 -69.01 75.505 -68 75 C-68.99 71.7 -69.98 68.4 -71 65 C-70.01 64.34 -69.02 63.68 -68 63 C-68.33 59.7 -68.66 56.4 -69 53 C-68.01 53 -67.02 53 -66 53 C-66 49.37 -66 45.74 -66 42 C-65.34 42 -64.68 42 -64 42 C-64.01160156 41.28972656 -64.02320312 40.57945313 -64.03515625 39.84765625 C-64.04869141 38.46900391 -64.04869141 38.46900391 -64.0625 37.0625 C-64.07410156 36.14597656 -64.08570312 35.22945312 -64.09765625 34.28515625 C-64 32 -64 32 -63 31 C-60.66055264 31.28730055 -58.3260857 31.61936779 -56 32 C-55.87625 31.46375 -55.7525 30.9275 -55.625 30.375 C-54.87793984 27.5361714 -53.94696636 24.77776798 -53 22 C-51.35 21.67 -49.7 21.34 -48 21 C-47.938125 20.21625 -47.87625 19.4325 -47.8125 18.625 C-47 16 -47 16 -44.5625 14.6875 C-42 14 -42 14 -40 14 C-39.195625 13.01 -38.39125 12.02 -37.5625 11 C-36.716875 10.01 -35.87125 9.02 -35 8 C-34.01 8 -33.02 8 -32 8 C-32 8.66 -32 9.32 -32 10 C-31.071875 9.2575 -31.071875 9.2575 -30.125 8.5 C-28 7 -28 7 -26 7 C-25.67 6.01 -25.34 5.02 -25 4 C-24.319375 4.2475 -23.63875 4.495 -22.9375 4.75 C-18.63689625 5.11600883 -16.65507664 3.23365795 -13 1 C-12.01 1 -11.02 1 -10 1 C-10 1.99 -10 2.98 -10 4 C-6.7 2.68 -3.4 1.36 0 0 Z " fill="#0D0D0E" transform="translate(78,7)"/>
<path d="M0 0 C0.70125 0.433125 1.4025 0.86625 2.125 1.3125 C4.94761549 3.05178041 4.94761549 3.05178041 7.9375 4.25 C12.70396187 6.9736925 16.2528302 10.75849059 18 16 C18.05078156 18.06229571 18.09114654 20.12485696 18.125 22.1875 C18.61236825 29.25433963 20.86309575 32.37678617 26 37 C26.86625 37.969375 27.7325 38.93875 28.625 39.9375 C31.17385926 42.15098304 32.67632802 42.71511383 36 43 C35.2575 41.9171875 35.2575 41.9171875 34.5 40.8125 C32.92080715 37.85151341 32.71821688 36.28746971 33 33 C35.28125 32.7109375 35.28125 32.7109375 38 33 C39.84375 34.9765625 39.84375 34.9765625 41.5 37.625 C42.10328125 38.5428125 42.7065625 39.460625 43.328125 40.40625 C43.87984375 41.2621875 44.4315625 42.118125 45 43 C48.80699341 48.28749084 53.302539 51.49554067 58.671875 55.0703125 C61 57 61 57 61.890625 59.1796875 C61.92671875 59.78039062 61.9628125 60.38109375 62 61 C61 62 61 62 58.6875 62.1875 C55.9220797 61.9945637 54.35954949 61.39825155 52 60 C53.96397336 67.54344314 59.01389275 72.33983102 65 77 C67.63910433 77.91911003 69.93439715 78.28033665 72.703125 78.5625 C76.78166701 79.33936514 79.36786753 81.91511005 82 85 C84.32753712 88.94669337 84.46024243 92.47428276 84 97 C82.32486526 102.26614216 79.6840725 106.17599687 74.9921875 109.15625 C70.14361859 111.20976154 65.60387903 110.55518889 60.75 108.875 C56.91915651 106.26306126 54.09838185 103.19676371 52 99 C52.03480469 98.35289063 52.06960937 97.70578125 52.10546875 97.0390625 C52.26538033 92.33309304 51.48232602 89.27314792 48.40625 85.70703125 C42.67042865 79.18242378 42.67042865 79.18242378 35 76 C35 75.34 35 74.68 35 74 C33.72799029 75.10281127 32.45744147 76.20730769 31.1875 77.3125 C30.12595703 78.23482422 30.12595703 78.23482422 29.04296875 79.17578125 C25.46316744 82.3461564 25.46316744 82.3461564 22.75 86.2421875 C20.32659244 90.06121817 17.22962449 92.98141058 14 96.125 C13.3709375 96.74503906 12.741875 97.36507812 12.09375 98.00390625 C10.924169 99.15614177 9.75253484 100.30629993 8.578125 101.45361328 C7.04179909 102.95904155 5.5183705 104.47648442 4 106 C4.66 106 5.32 106 6 106 C6 106.66 6 107.32 6 108 C-6.88096904 108.68800428 -6.88096904 108.68800428 -10.6875 106.3125 C-14.25962472 102.74037528 -14.77118371 100.14408145 -15.75 95.25 C-15.67491811 92.17741808 -15.1137923 91.13256455 -13.08203125 88.765625 C-10.45994915 86.40778373 -7.75745839 84.19752943 -5 82 C-3.36582527 80.57293861 -1.74016473 79.13604208 -0.125 77.6875 C0.57367188 77.07261719 1.27234375 76.45773438 1.9921875 75.82421875 C3.403699 74.54177542 4.77328054 73.21239945 6.109375 71.8515625 C8 70 8 70 10.375 68.6875 C12.75899927 67.15492904 14.48400954 65.71663815 16.4375 63.6875 C16.97246094 63.13449219 17.50742187 62.58148438 18.05859375 62.01171875 C19.27875059 59.91734531 19.27875059 59.91734531 18.44140625 57.09765625 C16.86047081 53.70014459 15.06820451 51.46829438 12.5 48.75 C11.7059375 47.89921875 10.911875 47.0484375 10.09375 46.171875 C6.51571967 42.46033608 5.43788531 41.77543559 0.25 41.5625 C-6.07504594 41.11664849 -9.78928764 39.85082895 -14.6875 35.75 C-19.46743723 30.06575032 -20.37658457 25.15510686 -20 18 C-17.46195258 18.38669821 -16.26909965 18.70624462 -14.5078125 20.62890625 C-14.05148438 21.26699219 -13.59515625 21.90507813 -13.125 22.5625 C-11.04251394 25.07189571 -10.30518785 25.90048222 -7.125 26.9375 C-2.12743898 25.43823169 1.00830081 22.20516902 4 18 C4.74121622 14.86103604 4.74121622 14.86103604 3 12 C1.25164292 10.0784566 -0.548929 8.32437804 -2.50390625 6.61328125 C-4 5 -4 5 -4 2 C-2.68 2 -1.36 2 0 2 C0 1.34 0 0.68 0 0 Z " fill="#AF46D8" transform="translate(36,22)"/>
<path d="M0 0 C0.7734375 -0.00773438 1.546875 -0.01546875 2.34375 -0.0234375 C5.03113705 0.47314489 5.91898801 1.16358449 7.5 3.375 C7.828125 5.3125 7.828125 5.3125 7.75 7.375 C7.73453125 8.055625 7.7190625 8.73625 7.703125 9.4375 C7.5 11.375 7.5 11.375 6.5 14.375 C7.38816406 14.62894531 8.27632812 14.88289063 9.19140625 15.14453125 C14.48790468 17.11430339 18.27166779 20.70639917 22.5 24.375 C23.13292969 24.91125 23.76585937 25.4475 24.41796875 26 C27.88336638 29.17198867 30.11191875 32.36823401 32.37548828 36.50146484 C35.04208931 41.98569683 35.04208931 41.98569683 39.8671875 45.0703125 C42.23765487 44.97670567 42.23765487 44.97670567 44.51171875 44.58984375 C46.5 44.375 46.5 44.375 49.0625 46 C50.96204341 49.13837607 51.07951985 50.75300092 50.5 54.375 C47.88863543 58.75322821 44.87476636 62.24469425 41.25 65.8125 C40.76692383 66.28840576 40.28384766 66.76431152 39.78613281 67.25463867 C36.4028842 70.56221821 32.94741832 73.76208178 29.32421875 76.8046875 C27.46986304 78.35732327 27.46986304 78.35732327 25.76953125 80.1328125 C22.53148456 83.31899116 20.37873644 84.77298917 15.75 84.9375 C13.09078546 84.86776535 11.88519602 84.66561664 9.75 83.0546875 C7.70427235 80.30574097 8.26759957 77.68670619 8.5 74.375 C9 71.9375 9 71.9375 9.5 70.375 C8.51 70.065625 8.51 70.065625 7.5 69.75 C-4.96713686 64.03589561 -14.48180401 52.41139198 -20.5 40.375 C-21.53060547 40.42720703 -21.53060547 40.42720703 -22.58203125 40.48046875 C-23.48308594 40.50753906 -24.38414063 40.53460938 -25.3125 40.5625 C-26.65248047 40.61470703 -26.65248047 40.61470703 -28.01953125 40.66796875 C-30.5 40.375 -30.5 40.375 -32.30078125 39.10546875 C-34.36760086 36.12305479 -33.97542337 32.81842356 -33.5 29.375 C-31.7352655 24.85286784 -28.23530695 22.25221133 -24.609375 19.1953125 C-22.64062516 17.49635431 -20.81698624 15.73366023 -19 13.875 C-15.9071426 10.72539293 -12.64944435 7.82292437 -9.296875 4.953125 C-7.48264547 3.43216364 -7.48264547 3.43216364 -6.046875 1.6953125 C-3.98132314 -0.06770904 -2.68458676 -0.02684587 0 0 Z " fill="#B046DA" transform="translate(92.5,9.625)"/>
<path d="M0 0 C0.99 0.33 1.98 0.66 3 1 C3.28875 1.89203125 3.5775 2.7840625 3.875 3.703125 C5.97002397 9.84270913 10.98324637 14.0944703 16 18 C18.63910433 18.91911003 20.93439715 19.28033665 23.703125 19.5625 C27.78166701 20.33936514 30.36786753 22.91511005 33 26 C35.32753712 29.94669337 35.46024243 33.47428276 35 38 C33.32486526 43.26614216 30.6840725 47.17599687 25.9921875 50.15625 C21.14361859 52.20976154 16.60387903 51.55518889 11.75 49.875 C7.91915651 47.26306126 5.09838185 44.19676371 3 40 C3.03480469 39.35289063 3.06960937 38.70578125 3.10546875 38.0390625 C3.26538033 33.33309304 2.48232602 30.27314792 -0.59375 26.70703125 C-6.37916573 20.37542935 -6.37916573 20.37542935 -14 17 C-14.33 16.01 -14.66 15.02 -15 14 C-14.16855469 13.24074219 -13.33710937 12.48148438 -12.48046875 11.69921875 C-11.38277925 10.69534886 -10.28512484 9.6914406 -9.1875 8.6875 C-8.64029297 8.18798828 -8.09308594 7.68847656 -7.52929688 7.17382812 C-4.96878163 4.83056872 -2.42060466 2.48855146 0 0 Z " fill="#59D396" transform="translate(85,81)"/>
<path d="M0 0 C0.70125 0.433125 1.4025 0.86625 2.125 1.3125 C4.94761549 3.05178041 4.94761549 3.05178041 7.9375 4.25 C12.70396187 6.9736925 16.2528302 10.75849059 18 16 C18.05078156 18.06229571 18.09114654 20.12485696 18.125 22.1875 C18.61236825 29.25433963 20.86309575 32.37678617 26 37 C26.86625 37.969375 27.7325 38.93875 28.625 39.9375 C31.17385926 42.15098304 32.67632802 42.71511383 36 43 C34.67879172 45.93230193 33.25361803 47.98664899 30.9609375 50.234375 C30.38085938 50.80800781 29.80078125 51.38164063 29.203125 51.97265625 C28.59984375 52.55917969 27.9965625 53.14570312 27.375 53.75 C26.76398437 54.35199219 26.15296875 54.95398438 25.5234375 55.57421875 C24.02011376 57.05405305 22.51065144 58.52764676 21 60 C20.01 59.67 19.02 59.34 18 59 C17.92652344 58.28199219 17.85304687 57.56398437 17.77734375 56.82421875 C16.78871637 53.23237153 15.11044807 51.50720987 12.5625 48.8125 C11.75941406 47.95269531 10.95632812 47.09289062 10.12890625 46.20703125 C6.53170193 42.47781944 5.46220626 41.77643384 0.25 41.5625 C-6.07504594 41.11664849 -9.78928764 39.85082895 -14.6875 35.75 C-19.46743723 30.06575032 -20.37658457 25.15510686 -20 18 C-17.46195258 18.38669821 -16.26909965 18.70624462 -14.5078125 20.62890625 C-14.05148438 21.26699219 -13.59515625 21.90507813 -13.125 22.5625 C-11.04251394 25.07189571 -10.30518785 25.90048222 -7.125 26.9375 C-2.12743898 25.43823169 1.00830081 22.20516902 4 18 C4.74121622 14.86103604 4.74121622 14.86103604 3 12 C1.25164292 10.0784566 -0.548929 8.32437804 -2.50390625 6.61328125 C-4 5 -4 5 -4 2 C-2.68 2 -1.36 2 0 2 C0 1.34 0 0.68 0 0 Z " fill="#59D396" transform="translate(36,22)"/>
<path d="M0 0 C0 0.66 0 1.32 0 2 C1.05574219 2.08314453 1.05574219 2.08314453 2.1328125 2.16796875 C5.95564372 3.27731895 8.16412216 5.54066327 10.875 8.3125 C11.38546875 8.79912109 11.8959375 9.28574219 12.421875 9.78710938 C13.8671875 11.23828125 13.8671875 11.23828125 16 14 C15.8203125 16.35546875 15.8203125 16.35546875 15 18 C13.35 17.67 11.7 17.34 10 17 C9.67 17.66 9.34 18.32 9 19 C7.63875 18.7525 7.63875 18.7525 6.25 18.5 C2.88912497 17.89862854 2.88912497 17.89862854 -1 18 C-5 18 -5 18 -8 17 C-8 16.34 -8 15.68 -8 15 C-9.98 15.33 -11.96 15.66 -14 16 C-14 16.66 -14 17.32 -14 18 C-13.34 18 -12.68 18 -12 18 C-12 18.66 -12 19.32 -12 20 C-11.01 20 -10.02 20 -9 20 C-8.67 19.34 -8.34 18.68 -8 18 C-7.01 18.66 -6.02 19.32 -5 20 C-5 20.66 -5 21.32 -5 22 C-4.01 22 -3.02 22 -2 22 C-2 21.34 -2 20.68 -2 20 C-0.35 20 1.3 20 3 20 C3 20.99 3 21.98 3 23 C3.99 23 4.98 23 6 23 C6 22.34 6 21.68 6 21 C7.32 20.67 8.64 20.34 10 20 C10 20.66 10 21.32 10 22 C10.99 22 11.98 22 13 22 C13 21.34 13 20.68 13 20 C13.99 20 14.98 20 16 20 C15.505 22.475 15.505 22.475 15 25 C12.69 25 10.38 25 8 25 C7.67 26.98 7.34 28.96 7 31 C6.67 31 6.34 31 6 31 C6 29.35 6 27.7 6 26 C4.68 26.33 3.36 26.66 2 27 C2.99 27.66 3.98 28.32 5 29 C4.01 29.33 3.02 29.66 2 30 C2.66 31.32 3.32 32.64 4 34 C-0.455 34.495 -0.455 34.495 -5 35 C-5.66 37.64 -6.32 40.28 -7 43 C-3.535 42.505 -3.535 42.505 0 42 C-0.33 42.66 -0.66 43.32 -1 44 C-3.28515625 44.6328125 -3.28515625 44.6328125 -6.0625 45.125 C-7.44115234 45.37636719 -7.44115234 45.37636719 -8.84765625 45.6328125 C-9.55792969 45.75398438 -10.26820312 45.87515625 -11 46 C-11.495 44.515 -11.495 44.515 -12 43 C-15.3 42.67 -18.6 42.34 -22 42 C-22 41.34 -22 40.68 -22 40 C-19.21207647 39.07069216 -16.77881925 38.98330493 -13.875 39.0625 C-9.98538931 39.44913022 -9.98538931 39.44913022 -8 37 C-8.99 36.67 -9.98 36.34 -11 36 C-9.02 35.505 -9.02 35.505 -7 35 C-7 34.34 -7 33.68 -7 33 C-10.34252724 32.92572162 -12.8035914 32.93453047 -16 34 C-16 32.68 -16 31.36 -16 30 C-18.64 29.67 -21.28 29.34 -24 29 C-24.33203125 26.84375 -24.33203125 26.84375 -24 24 C-22.27459183 21.96114756 -20.65327195 20.26993842 -18.6875 18.5 C-15.16014554 15.25028247 -12.40723842 12.17568453 -10 8 C-8.69422828 6.5184016 -7.3391852 5.07870531 -5.9375 3.6875 C-4.89916016 2.64142578 -4.89916016 2.64142578 -3.83984375 1.57421875 C-2 0 -2 0 0 0 Z " fill="#292B2A" transform="translate(71,96)"/>
<path d="M0 0 C0.33 0.66 0.66 1.32 1 2 C2.11375 1.690625 2.11375 1.690625 3.25 1.375 C6.41261975 0.94373367 7.28333017 1.51021332 10 3 C11.32 3 12.64 3 14 3 C14.99 3.33 15.98 3.66 17 4 C17.33 3.01 17.66 2.02 18 1 C19.175625 1.309375 19.175625 1.309375 20.375 1.625 C21.24125 1.74875 22.1075 1.8725 23 2 C23.66 1.34 24.32 0.68 25 0 C25.02578125 0.65226562 25.0515625 1.30453125 25.078125 1.9765625 C25.51775076 8.75079584 26.82901649 12.82901649 31.75 17.75 C35.03807032 19.57670573 38.32721252 20.20422938 42 21 C42 21.66 42 22.32 42 23 C40.20963542 23.9765625 38.41927083 24.953125 36.62890625 25.9296875 C34.83381685 26.91410024 34.83381685 26.91410024 34 29 C33.01 29 32.02 29 31 29 C31 28.34 31 27.68 31 27 C30.37351563 27.28875 29.74703125 27.5775 29.1015625 27.875 C28.28429687 28.24625 27.46703125 28.6175 26.625 29 C25.81289062 29.37125 25.00078125 29.7425 24.1640625 30.125 C22 31 22 31 20 31 C19.34 30.34 18.68 29.68 18 29 C16.906875 29.495 15.81375 29.99 14.6875 30.5 C11 32 11 32 8 32 C7.34 30.68 6.68 29.36 6 28 C4.35 28 2.7 28 1 28 C1.66 25.36 2.32 22.72 3 20 C5.64 19.34 8.28 18.68 11 18 C10.67 17.01 10.34 16.02 10 15 C9.34 14.67 8.68 14.34 8 14 C8 13.34 8 12.68 8 12 C9.9914056 11.61866701 11.99279077 11.28674418 14 11 C14.33 11.33 14.66 11.66 15 12 C15.33 11.34 15.66 10.68 16 10 C18.32156597 9.59270772 20.6568787 9.25561323 23 9 C23.33 7.68 23.66 6.36 24 5 C23.01 5 22.02 5 21 5 C21 5.66 21 6.32 21 7 C18.69 6.67 16.38 6.34 14 6 C14 6.66 14 7.32 14 8 C13.01 8 12.02 8 11 8 C10.67 7.34 10.34 6.68 10 6 C7.97536745 5.34786708 7.97536745 5.34786708 6 5 C6 5.66 6 6.32 6 7 C5.01 7 4.02 7 3 7 C3 6.34 3 5.68 3 5 C1.68 5 0.36 5 -1 5 C-1.99 5 -2.98 5 -4 5 C-4 4.34 -4 3.68 -4 3 C-4.66 3 -5.32 3 -6 3 C-6 2.34 -6 1.68 -6 1 C-4 0 -4 0 0 0 Z " fill="#080908" transform="translate(63,111)"/>
<path d="M0 0 C0.66 0 1.32 0 2 0 C2 0.66 2 1.32 2 2 C2.556875 2.12375 3.11375 2.2475 3.6875 2.375 C6.22114364 3.05976855 8.57921032 3.99133763 11 5 C11 4.34 11 3.68 11 3 C11.66 3 12.32 3 13 3 C12.49396008 5.16874252 12.00016187 6.99967627 11 9 C12.11375 9.433125 12.11375 9.433125 13.25 9.875 C15.56739797 10.82302644 17.77917115 11.84845911 20 13 C19.87625 13.721875 19.7525 14.44375 19.625 15.1875 C19.71546822 18.32673947 19.71546822 18.32673947 22.9375 20.375 C23.49566406 20.78621094 24.05382812 21.19742188 24.62890625 21.62109375 C26 23 26 23 26.375 26.4375 C26.60530041 29.99595845 26.60530041 29.99595845 28.7890625 31.5 C29.51867187 31.974375 30.24828125 32.44875 31 32.9375 C34.76850533 35.47464452 34.76850533 35.47464452 35.85546875 37.94140625 C36.45338128 41.64846394 36.23355716 43.54261724 34.5 46.9375 C32.42382797 51.17635123 33.164399 54.46963316 34 59 C33.01 59.495 33.01 59.495 32 60 C32 62.31 32 64.62 32 67 C27.97322133 67 25.50954143 65.94974524 22 64 C20.98828125 61.203125 20.98828125 61.203125 21 58 C23.01953125 55.3671875 23.01953125 55.3671875 25.8125 52.875 C31.37633897 47.87878254 31.37633897 47.87878254 33.3125 40.9375 C33.2540388 38.04775748 33.2540388 38.04775748 31.75366211 36.30078125 C29.46723667 34.60482207 28.40649404 34.88949763 25.62890625 35.25 C21.46794578 35.38468616 21.46794578 35.38468616 19.46044922 33.734375 C18.1305662 31.88265235 17.02333956 30.00444518 15.9375 28 C15.10325881 26.61301104 14.26211183 25.23015202 13.4140625 23.8515625 C13.00833008 23.18415039 12.60259766 22.51673828 12.18457031 21.82910156 C8.11990778 15.5528337 2.14049713 11.09366475 -4 7 C-2.79618552 4.50638429 -1.54571278 2.31856917 0 0 Z " fill="#2C2230" transform="translate(109,20)"/>
<path d="M0 0 C1.8125 1.1875 1.8125 1.1875 3 3 C3.165 3.845625 3.33 4.69125 3.5 5.5625 C3.7756937 8.35862883 3.7756937 8.35862883 7 10 C6.4225 10.4125 5.845 10.825 5.25 11.25 C0.9175077 14.46464415 0.9175077 14.46464415 -1.63671875 19.03515625 C-1.75122135 23.60645217 -0.50495001 27.24257499 2 31 C5.2354844 33.13541971 7.8073841 33.19112587 11.625 33.0625 C16.80555556 32.90277778 16.80555556 32.90277778 19 34 C19 33.34 19 32.68 19 32 C18.34 32 17.68 32 17 32 C18.33332095 28.00003714 20.4957827 27.16217663 24 25 C24 26.32 24 27.64 24 29 C24.94875 28.979375 25.8975 28.95875 26.875 28.9375 C30 29 30 29 32 30 C32.495 31.485 32.495 31.485 33 33 C33.94875 32.814375 34.8975 32.62875 35.875 32.4375 C39 32 39 32 41 33 C41 35.73922932 40.95221217 36.14336348 40 39 C37.23547967 40.38226016 34.9538637 40.09525387 31.875 40.0625 C30.77929688 40.05347656 29.68359375 40.04445312 28.5546875 40.03515625 C27.71164063 40.02355469 26.86859375 40.01195312 26 40 C26 39.34 26 38.68 26 38 C24.68644531 37.87882812 23.37289062 37.75765625 22.01953125 37.6328125 C20.28381613 37.46393211 18.54814108 37.29463961 16.8125 37.125 C15.94818359 37.04636719 15.08386719 36.96773437 14.19335938 36.88671875 C7.49847839 36.21979574 2.48788587 35.41641398 -2 30 C-4.21855193 26.40805879 -3.9264235 23.95751832 -3.3125 19.9375 C-2.90217558 17.37440904 -2.90217558 17.37440904 -3 15 C-5.24122355 12.30211406 -5.24122355 12.30211406 -8 11 C-7.62875 10.278125 -7.2575 9.55625 -6.875 8.8125 C-5.81025859 5.39011689 -6.39660152 4.11771927 -8 1 C-5.20129973 -0.39935013 -3.09501208 -0.25265405 0 0 Z " fill="#060208" transform="translate(23,96)"/>
<path d="M0 0 C0 0.99 0 1.98 0 3 C-1.32 3 -2.64 3 -4 3 C-1.83764059 6.96432558 0.73634349 9.97192771 3.890625 13.15625 C5 15 5 15 4.90234375 17.44921875 C3.26335733 22.08237085 -0.17640266 25.0441194 -4 28 C-7.0625 29 -7.0625 29 -10 28 C-11.98590793 26.06096973 -13.69739225 24.04960596 -15.38671875 21.84765625 C-16.95881543 19.73227046 -16.95881543 19.73227046 -20 19 C-19.74357696 20.91864771 -19.46926564 22.83490994 -19.1875 24.75 C-19.03667969 25.81734375 -18.88585937 26.8846875 -18.73046875 27.984375 C-17.98679593 31.05451094 -17.07234528 32.66080478 -15 35 C-15.33 35.66 -15.66 36.32 -16 37 C-17.98 35.35 -19.96 33.7 -22 32 C-22 34.31 -22 36.62 -22 39 C-22.66 38.67 -23.32 38.34 -24 38 C-24 34.7 -24 31.4 -24 28 C-23.34 28 -22.68 28 -22 28 C-22.01160156 27.28972656 -22.02320313 26.57945313 -22.03515625 25.84765625 C-22.04417969 24.92855469 -22.05320312 24.00945313 -22.0625 23.0625 C-22.07410156 22.14597656 -22.08570313 21.22945312 -22.09765625 20.28515625 C-22 18 -22 18 -21 17 C-18.66055264 17.28730055 -16.3260857 17.61936779 -14 18 C-13.87625 17.46375 -13.7525 16.9275 -13.625 16.375 C-12.87793984 13.5361714 -11.94696636 10.77776798 -11 8 C-9.35 7.67 -7.7 7.34 -6 7 C-5.896875 6.21625 -5.79375 5.4325 -5.6875 4.625 C-4.82572663 1.33459258 -3.53157582 0 0 0 Z " fill="#2A322E" transform="translate(36,21)"/>
<path d="M0 0 C4.75 1.875 4.75 1.875 7 3 C6.44271087 6.34373475 5.64826111 9.03312999 4 12 C4.99 12.33 5.98 12.66 7 13 C4.64046906 15.35953094 3.22104383 15.49141413 0 16 C0 16.66 0 17.32 0 18 C1.98 18.33 3.96 18.66 6 19 C6 20.98 6 22.96 6 25 C5.34 23.68 4.68 22.36 4 21 C4.144375 21.680625 4.28875 22.36125 4.4375 23.0625 C4.857531 25.2559952 5.17437188 27.46970587 5.4375 29.6875 C5.68294968 33.06878101 5.68294968 33.06878101 8 35 C8.66666667 37 9.33333333 39 10 41 C10.66 41.66 11.32 42.32 12 43 C10.8125 44.5625 10.8125 44.5625 9 46 C6.3125 45.6875 6.3125 45.6875 4 45 C3.67 42.69 3.34 40.38 3 38 C-0.3 38 -3.6 38 -7 38 C-6.01 39.98 -5.02 41.96 -4 44 C-7.73044765 42.75651745 -8.79540326 41.19286425 -11 38 C-11 37.01 -11 36.02 -11 35 C-9.72125 34.855625 -8.4425 34.71125 -7.125 34.5625 C-4.74307106 34.29357254 -3.15547309 34.07773654 -1 33 C-1.52268466 30.23723823 -2.10869587 27.6739124 -3 25 C-2.34 25 -1.68 25 -1 25 C-2.05875074 21.59687262 -3.00902154 18.98646769 -5 16 C-4.01 15.67 -3.02 15.34 -2 15 C-2.48484276 10.35413108 -2.48484276 10.35413108 -4 6 C-3.01 6 -2.02 6 -1 6 C-0.67 4.02 -0.34 2.04 0 0 Z " fill="#050606" transform="translate(22,59)"/>
<path d="M0 0 C5.69189486 4.5972997 11.22584462 9.20975896 14.375 15.9375 C13.82942347 20.39304164 11.38355116 22.37394736 8.2734375 25.4609375 C5.60718457 27.2659266 4.1542141 27.32095512 1 27 C-1.19113347 17.98113812 -1.97888563 9.15234603 0 0 Z " fill="#575757" transform="translate(40,64)"/>
<path d="M0 0 C3.54787475 -0.57223786 5.56864548 -0.83260808 9 0 C15.08264712 4.58820365 20.24815747 10.33083294 22.9453125 17.51953125 C23 20 23 20 21.3046875 22.38671875 C20.10199219 23.52560547 20.10199219 23.52560547 18.875 24.6875 C18.08867188 25.45449219 17.30234375 26.22148438 16.4921875 27.01171875 C12.45285137 30.23432391 9.13539916 31.29345138 4 31 C4 30.01 4 29.02 4 28 C3.01 28 2.02 28 1 28 C1.33 24.7 1.66 21.4 2 18 C1.34 17.67 0.68 17.34 0 17 C-0.6875 14 -0.6875 14 -1 11 C-0.67 10.67 -0.34 10.34 0 10 C-0.165 9.071875 -0.33 8.14375 -0.5 7.1875 C-0.97196454 4.17872609 -0.8319453 2.82004987 0 0 Z M7 1 C5.02111437 10.15234603 5.80886653 18.98113812 8 28 C11.11860664 28.30692789 12.6270365 28.23728304 15.30859375 26.53125 C19.92816742 22.19886526 19.92816742 22.19886526 21.1875 16.1875 C18.87722535 10.03086384 12.8610961 5.24468102 8 1 C7.67 1 7.34 1 7 1 Z " fill="#1F2527" transform="translate(33,63)"/>
<path d="M0 0 C0.66 0.268125 1.32 0.53625 2 0.8125 C8.01314102 3.19270165 13.63761085 5.33903195 20.0625 6.3125 C22.74164693 7.26316504 24.15077956 8.88660521 26 11 C26 11.33 26 11.66 26 12 C21.545 12.495 21.545 12.495 17 13 C16.34 15.64 15.68 18.28 15 21 C18.465 20.505 18.465 20.505 22 20 C21.67 20.66 21.34 21.32 21 22 C18.71484375 22.6328125 18.71484375 22.6328125 15.9375 23.125 C15.01839844 23.29257813 14.09929688 23.46015625 13.15234375 23.6328125 C12.44207031 23.75398438 11.73179688 23.87515625 11 24 C10.67 23.01 10.34 22.02 10 21 C6.7 20.67 3.4 20.34 0 20 C0 19.34 0 18.68 0 18 C2.78792353 17.07069216 5.22118075 16.98330493 8.125 17.0625 C12.01461069 17.44913022 12.01461069 17.44913022 14 15 C13.01 14.67 12.02 14.34 11 14 C12.32 13.67 13.64 13.34 15 13 C15 12.34 15 11.68 15 11 C11.65747276 10.92572162 9.1964086 10.93453047 6 12 C6 10.68 6 9.36 6 8 C3.36 7.67 0.72 7.34 -2 7 C-2.125 4.625 -2.125 4.625 -2 2 C-1.34 1.34 -0.68 0.68 0 0 Z " fill="#030303" transform="translate(49,118)"/>
<path d="M0 0 C0.99 0.33 1.98 0.66 3 1 C2.96519531 1.93972656 2.96519531 1.93972656 2.9296875 2.8984375 C2.91164063 3.71570312 2.89359375 4.53296875 2.875 5.375 C2.85179687 6.18710937 2.82859375 6.99921875 2.8046875 7.8359375 C2.78629949 10.21342243 2.78629949 10.21342243 5 12 C7.34360054 12.05279673 7.34360054 12.05279673 9.9375 11.8125 C12.640625 11.74609375 12.640625 11.74609375 15 12 C17.1875 14.375 17.1875 14.375 18 17 C17.67 17.66 17.34 18.32 17 19 C15.35 18.67 13.7 18.34 12 18 C13.2125738 21.72433382 14.50859979 25.37802806 16 29 C10.29324501 27.80457003 7.11189613 25.80985699 3.125 21.5 C2.6403125 21.00113281 2.155625 20.50226562 1.65625 19.98828125 C-1.90896225 16.2736886 -3.13539536 14.47767495 -3.0625 9.375 C-3.05347656 8.55773438 -3.04445312 7.74046875 -3.03515625 6.8984375 C-3.02355469 6.27195312 -3.01195312 5.64546875 -3 5 C-2.67 5.66 -2.34 6.32 -2 7 C-1.01 7 -0.02 7 1 7 C0.34 6.34 -0.32 5.68 -1 5 C-0.625 2.375 -0.625 2.375 0 0 Z " fill="#131016" transform="translate(57,37)"/>
<path d="M0 0 C2.93471562 2.84578484 5.66758968 5.75691765 8.3125 8.875 C13.79017678 15.17254597 19.59145729 20.141384 27 24 C26.96519531 24.91523437 26.93039063 25.83046875 26.89453125 26.7734375 C26.86746094 27.96195313 26.84039062 29.15046875 26.8125 30.375 C26.77769531 31.55835937 26.74289063 32.74171875 26.70703125 33.9609375 C26.80371094 34.96382812 26.90039062 35.96671875 27 37 C27.99 37.66 28.98 38.32 30 39 C29.67 39.99 29.34 40.98 29 42 C22.33346929 41.47369494 19.60903918 38.31777968 15.1484375 33.65625 C12.49004232 30.36950687 11.54054713 28.14419463 11 24 C15.875 25.875 15.875 25.875 17 27 C18.66617115 27.04063832 20.33388095 27.042721 22 27 C22 25.68 22 24.36 22 23 C20.9790625 22.690625 20.9790625 22.690625 19.9375 22.375 C11.89083431 18.60847564 6.02195592 11.13419489 1 4 C0.2421875 1.6640625 0.2421875 1.6640625 0 0 Z " fill="#251C2C" transform="translate(75,56)"/>
<path d="M0 0 C0 0.66 0 1.32 0 2 C0.66 2.33 1.32 2.66 2 3 C3.26047107 4.77663682 4.46123378 6.59606744 5.625 8.4375 C6.57246094 9.92056641 6.57246094 9.92056641 7.5390625 11.43359375 C9 14 9 14 9 16 C2.02330843 16.39325819 -3.51656189 15.63096039 -10 13 C-10.35142196 9.76351714 -10.30933949 8.41221285 -8.3203125 5.76171875 C-7.23363281 4.73498047 -7.23363281 4.73498047 -6.125 3.6875 C-5.40570313 2.99011719 -4.68640625 2.29273437 -3.9453125 1.57421875 C-2 0 -2 0 0 0 Z " fill="#515152" transform="translate(71,96)"/>
<path d="M0 0 C3.96670899 0.44074544 6.68811135 1.82361603 10 4 C9.01 4.495 9.01 4.495 8 5 C7.71080072 6.99226169 7.42735449 8.98722182 7.24609375 10.9921875 C7 13 7 13 6 16 C4.35 15.67 2.7 15.34 1 15 C0.34 16.98 -0.32 18.96 -1 21 C-2.9375 20 -2.9375 20 -5 18 C-5.81294833 15.22005781 -5.90637179 12.94928875 -6 10 C-5.34 9.34 -4.68 8.68 -4 8 C-3.01 8 -2.02 8 -1 8 C-1.020625 6.865625 -1.04125 5.73125 -1.0625 4.5625 C-1 1 -1 1 0 0 Z " fill="#252525" transform="translate(126,96)"/>
<path d="M0 0 C0.66 0.99 1.32 1.98 2 3 C2.54527344 2.855625 3.09054688 2.71125 3.65234375 2.5625 C9.04747737 1.23446711 14.44572104 0.08909825 20 1 C22.5625 2.75 22.5625 2.75 24 5 C24 6.32 24 7.64 24 9 C28.95 9.99 28.95 9.99 34 11 C34 11.66 34 12.32 34 13 C33.01 13.66 32.02 14.32 31 15 C29.64748503 16.31387169 28.31054623 17.64426252 27 19 C25.02 18.34 23.04 17.68 21 17 C21.02320312 16.22914062 21.04640625 15.45828125 21.0703125 14.6640625 C21.08835937 13.66117188 21.10640625 12.65828125 21.125 11.625 C21.14820312 10.62726562 21.17140625 9.62953125 21.1953125 8.6015625 C21.27216848 5.83737827 21.27216848 5.83737827 19 4 C16.9280863 3.68110168 16.9280863 3.68110168 14.625 3.75 C13.85414062 3.74484375 13.08328125 3.7396875 12.2890625 3.734375 C9.7821556 4.02527887 8.21100764 4.8241253 6 6 C4.989375 6.144375 3.97875 6.28875 2.9375 6.4375 C-0.15317311 7.02933102 -1.10259037 7.57553214 -3 10 C-3 8.02 -3 6.04 -3 4 C-4.65 4 -6.3 4 -8 4 C-5.53721199 1.53721199 -3.29323018 1.00228745 0 0 Z " fill="#0E0512" transform="translate(78,7)"/>
<path d="M0 0 C0.66 0 1.32 0 2 0 C2 0.66 2 1.32 2 2 C2.556875 2.12375 3.11375 2.2475 3.6875 2.375 C6.22114364 3.05976855 8.57921032 3.99133763 11 5 C11 4.34 11 3.68 11 3 C11.66 3 12.32 3 13 3 C12.773125 3.886875 12.54625 4.77375 12.3125 5.6875 C11.94548054 9.57790624 12.73118159 10.91440696 15 14 C13.35 15.32 11.7 16.64 10 18 C9.57589844 17.62488281 9.15179688 17.24976562 8.71484375 16.86328125 C4.63482662 13.30335421 0.4486524 10.08682003 -4 7 C-2.79618552 4.50638429 -1.54571278 2.31856917 0 0 Z " fill="#302A32" transform="translate(109,20)"/>
<path d="M0 0 C2.9375 0.3125 2.9375 0.3125 4.9375 1.3125 C5.2675 2.3025 5.5975 3.2925 5.9375 4.3125 C6.88625 4.126875 7.835 3.94125 8.8125 3.75 C11.9375 3.3125 11.9375 3.3125 13.9375 4.3125 C13.9375 7.05172932 13.88971217 7.45586348 12.9375 10.3125 C10.17297967 11.69476016 7.8913637 11.40775387 4.8125 11.375 C3.71679688 11.36597656 2.62109375 11.35695312 1.4921875 11.34765625 C0.22761719 11.33025391 0.22761719 11.33025391 -1.0625 11.3125 C-1.0625 10.3225 -1.0625 9.3325 -1.0625 8.3125 C-2.7125 7.9825 -4.3625 7.6525 -6.0625 7.3125 C-6.0625 4.3125 -6.0625 4.3125 -4.9375 2.125 C-3.0625 0.3125 -3.0625 0.3125 0 0 Z " fill="#424242" transform="translate(50.0625,124.6875)"/>
<path d="M0 0 C1.2065625 0.0309375 1.2065625 0.0309375 2.4375 0.0625 C1.5294838 1.19449353 0.61066174 2.31782363 -0.3125 3.4375 C-0.82296875 4.06398438 -1.3334375 4.69046875 -1.859375 5.3359375 C-3.65151599 7.15274098 -5.28648054 7.96242393 -7.5625 9.0625 C-8.83054566 11.0960948 -8.83054566 11.0960948 -9.5625 13.0625 C-10.5525 12.7325 -11.5425 12.4025 -12.5625 12.0625 C-12.2325 14.3725 -11.9025 16.6825 -11.5625 19.0625 C-12.5525 19.0625 -13.5425 19.0625 -14.5625 19.0625 C-15.23510351 17.29391309 -15.90038395 15.52253984 -16.5625 13.75 C-16.93375 12.76386719 -17.305 11.77773438 -17.6875 10.76171875 C-18.5625 8.0625 -18.5625 8.0625 -18.5625 5.0625 C-17.428125 4.753125 -16.29375 4.44375 -15.125 4.125 C-11.77474901 3.43325469 -11.77474901 3.43325469 -10.5625 2.0625 C-8.22916667 1.72916667 -5.89583333 1.39583333 -3.5625 1.0625 C-2.5625 0.0625 -2.5625 0.0625 0 0 Z " fill="#141317" transform="translate(69.5625,24.9375)"/>
<path d="M0 0 C0.33 0.66 0.66 1.32 1 2 C2.11375 1.690625 2.11375 1.690625 3.25 1.375 C6.41261975 0.94373367 7.28333017 1.51021332 10 3 C11.32 3 12.64 3 14 3 C14.99 3.33 15.98 3.66 17 4 C17.33 3.01 17.66 2.02 18 1 C19.175625 1.309375 19.175625 1.309375 20.375 1.625 C21.24125 1.74875 22.1075 1.8725 23 2 C23.66 1.34 24.32 0.68 25 0 C25.06058594 0.68707031 25.12117188 1.37414062 25.18359375 2.08203125 C25.30927734 3.43361328 25.30927734 3.43361328 25.4375 4.8125 C25.51871094 5.70582031 25.59992188 6.59914063 25.68359375 7.51953125 C25.93489767 10.12743559 25.93489767 10.12743559 27 13 C26.195625 12.979375 25.39125 12.95875 24.5625 12.9375 C22.06645115 12.70366379 22.06645115 12.70366379 21 14 C19.33382885 14.04063832 17.66611905 14.042721 16 14 C17.32 13.34 18.64 12.68 20 12 C18.68 12 17.36 12 16 12 C16 11.34 16 10.68 16 10 C19.465 9.505 19.465 9.505 23 9 C23.33 7.68 23.66 6.36 24 5 C23.01 5 22.02 5 21 5 C21 5.66 21 6.32 21 7 C18.69 6.67 16.38 6.34 14 6 C14 6.66 14 7.32 14 8 C13.01 8 12.02 8 11 8 C10.67 7.34 10.34 6.68 10 6 C7.97536745 5.34786708 7.97536745 5.34786708 6 5 C6 5.66 6 6.32 6 7 C5.01 7 4.02 7 3 7 C3 6.34 3 5.68 3 5 C1.68 5 0.36 5 -1 5 C-1.99 5 -2.98 5 -4 5 C-4 4.34 -4 3.68 -4 3 C-4.66 3 -5.32 3 -6 3 C-6 2.34 -6 1.68 -6 1 C-4 0 -4 0 0 0 Z " fill="#434343" transform="translate(63,111)"/>
<path d="M0 0 C0.99 0.33 1.98 0.66 3 1 C3 1.66 3 2.32 3 3 C3.99 3 4.98 3 6 3 C6.33 2.34 6.66 1.68 7 1 C7.99 1.66 8.98 2.32 10 3 C10 3.66 10 4.32 10 5 C10.99 5 11.98 5 13 5 C13 4.34 13 3.68 13 3 C14.65 3 16.3 3 18 3 C18 3.99 18 4.98 18 6 C18.99 6 19.98 6 21 6 C21 5.34 21 4.68 21 4 C22.32 3.67 23.64 3.34 25 3 C25 3.66 25 4.32 25 5 C25.99 5 26.98 5 28 5 C28 4.34 28 3.68 28 3 C28.99 3 29.98 3 31 3 C30.67 4.65 30.34 6.3 30 8 C27.69 8 25.38 8 23 8 C22.67 8.66 22.34 9.32 22 10 C21.67 9.34 21.34 8.68 21 8 C19.41632253 8.14204741 17.83306682 8.28880153 16.25 8.4375 C15.36828125 8.51871094 14.4865625 8.59992188 13.578125 8.68359375 C11.03482425 8.92466794 11.03482425 8.92466794 8.79296875 9.6484375 C7.90544922 9.82246094 7.90544922 9.82246094 7 10 C5.62298702 8.71182656 4.29355827 7.37195574 3 6 C0.36777038 4.74563813 0.36777038 4.74563813 -2 4 C-1.34 2.68 -0.68 1.36 0 0 Z " fill="#060606" transform="translate(56,113)"/>
<path d="M0 0 C0.66 0.66 1.32 1.32 2 2 C2.66 1.34 3.32 0.68 4 0 C7.125 -0.125 7.125 -0.125 10 0 C9.6390625 0.48210937 9.278125 0.96421875 8.90625 1.4609375 C8.21015625 2.40839844 8.21015625 2.40839844 7.5 3.375 C6.80390625 4.31472656 6.80390625 4.31472656 6.09375 5.2734375 C4.82161899 6.94094613 4.82161899 6.94094613 5 9 C3.68 9.33 2.36 9.66 1 10 C0.67 8.68 0.34 7.36 0 6 C-0.66 7.65 -1.32 9.3 -2 11 C-2.99 10.34 -3.98 9.68 -5 9 C-7.62531524 8.83286431 -7.62531524 8.83286431 -10 9 C-9.71848913 7.68528432 -9.42446661 6.37324233 -9.125 5.0625 C-8.96257812 4.33160156 -8.80015625 3.60070312 -8.6328125 2.84765625 C-7.29089881 -1.0704004 -3.54158551 -0.22134909 0 0 Z " fill="#525252" transform="translate(74,130)"/>
<path d="M0 0 C2.69082872 0.17635452 5.32851446 0.61835921 8 1 C8.33 2.32 8.66 3.64 9 5 C9.556875 4.484375 10.11375 3.96875 10.6875 3.4375 C13 2 13 2 15.75 2.3125 C16.4925 2.539375 17.235 2.76625 18 3 C17.07347299 4.17539996 16.13336613 5.34010577 15.1875 6.5 C14.40439453 7.47453125 14.40439453 7.47453125 13.60546875 8.46875 C12 10 12 10 9 10 C9 9.34 9 8.68 9 8 C8.46375 8.33 7.9275 8.66 7.375 9 C4.4608939 10.22699204 2.13132292 10.14233286 -1 10 C-1.02689216 8.52093108 -1.04634621 7.04172517 -1.0625 5.5625 C-1.07410156 4.73878906 -1.08570312 3.91507813 -1.09765625 3.06640625 C-1 1 -1 1 0 0 Z " fill="#565656" transform="translate(67,10)"/>
<path d="M0 0 C1.670625 0.37125 1.670625 0.37125 3.375 0.75 C4.78941874 3.57883747 4.69400332 5.62376745 4.375 8.75 C2.75 10.6875 2.75 10.6875 0.375 11.75 C-2.75 11.75 -2.75 11.75 -5.625 10.75 C-7.23007355 8.16792516 -7.69686844 6.58846514 -7.4375 3.5625 C-5.77865283 -0.13800523 -3.77978855 -0.26067507 0 0 Z " fill="#080F0C" transform="translate(105.625,110.25)"/>
<path d="M0 0 C0.33 1.32 0.66 2.64 1 4 C-0.32 4 -1.64 4 -3 4 C-2.67 4.66 -2.34 5.32 -2 6 C-0.68 6 0.64 6 2 6 C2 8.97 2 11.94 2 15 C-2.02677867 15 -4.49045857 13.94974524 -8 12 C-9.3125 9.1875 -9.3125 9.1875 -9 6 C-6.53746837 2.43942147 -4.44432401 0 0 0 Z " fill="#4E4E4E" transform="translate(139,72)"/>
<path d="M0 0 C0 3 0 3 -1 5 C-0.34 5 0.32 5 1 5 C0.96519531 5.92232422 0.96519531 5.92232422 0.9296875 6.86328125 C0.91164063 7.67152344 0.89359375 8.47976562 0.875 9.3125 C0.84019531 10.51326172 0.84019531 10.51326172 0.8046875 11.73828125 C0.84182678 14.28388576 0.84182678 14.28388576 3 17 C4.49924526 20.96859039 5.40054896 24.8038427 6 29 C4.1875 28.9375 4.1875 28.9375 2 28 C0.3125 24.5 0.3125 24.5 -1 21 C-1.33 20.67 -1.66 20.34 -2 20 C-2.33333333 17.66666667 -2.66666667 15.33333333 -3 13 C-3.33 12.67 -3.66 12.34 -4 12 C-4.04063832 10.33382885 -4.042721 8.66611905 -4 7 C-3.34 7.33 -2.68 7.66 -2 8 C-1.67 7.34 -1.34 6.68 -1 6 C-3.97 5.505 -3.97 5.505 -7 5 C-7 4.34 -7 3.68 -7 3 C-4.69 2.01 -2.38 1.02 0 0 Z " fill="#3B3B3B" transform="translate(29,72)"/>
<path d="M0 0 C0.66 0 1.32 0 2 0 C2.75390625 2.6953125 2.75390625 2.6953125 3 6 C1.33984375 8.5546875 1.33984375 8.5546875 -1.0625 10.875 C-1.83722656 11.65617187 -2.61195312 12.43734375 -3.41015625 13.2421875 C-6.52160245 15.35402881 -8.31499261 15.35299055 -12 15 C-12 14.34 -12 13.68 -12 13 C-11.360625 12.401875 -10.72125 11.80375 -10.0625 11.1875 C-7.77810713 9.17155491 -7.77810713 9.17155491 -7.5625 6.375 C-7.376875 5.59125 -7.19125 4.8075 -7 4 C-4.5625 2.8125 -4.5625 2.8125 -2 2 C-1.34 1.34 -0.68 0.68 0 0 Z " fill="#050907" transform="translate(38,34)"/>
<path d="M0 0 C0.66 0 1.32 0 2 0 C2.350625 0.804375 2.70125 1.60875 3.0625 2.4375 C4.70849672 5.16986174 4.70849672 5.16986174 7.1953125 5.5546875 C9.46910278 5.78990718 11.71504402 5.94730709 14 6 C13.07456291 7.34173403 12.13422595 8.67320159 11.1875 10 C10.40439453 11.11375 10.40439453 11.11375 9.60546875 12.25 C9.07566406 12.8275 8.54585937 13.405 8 14 C4.61966232 14 4.14560235 13.68627787 1.75 11.5 C-0.16298304 9.53047559 -0.95596884 8.58498542 -1.1640625 5.8203125 C-0.875 3.625 -0.875 3.625 0 0 Z " fill="#4D5350" transform="translate(56,45)"/>
<path d="M0 0 C0.66 0 1.32 0 2 0 C2.99 2.31 3.98 4.62 5 7 C5.66 7 6.32 7 7 7 C7.66 5.68 8.32 4.36 9 3 C9.66 3.33 10.32 3.66 11 4 C10.01 6.97 9.02 9.94 8 13 C5.525 12.505 5.525 12.505 3 12 C2.8453125 13.11375 2.8453125 13.11375 2.6875 14.25 C1.95066203 17.1973519 1.05200858 18.78383074 -1 21 C-1.66 21 -2.32 21 -3 21 C-3 21.66 -3 22.32 -3 23 C-4.28913487 23.67154933 -5.58140204 24.33708859 -6.875 25 C-7.59429687 25.37125 -8.31359375 25.7425 -9.0546875 26.125 C-11 27 -11 27 -13 27 C-13 26.01 -13 25.02 -13 24 C-11.948125 23.608125 -10.89625 23.21625 -9.8125 22.8125 C-5.20229953 20.82470101 -2.13471148 18.05328743 0.3125 13.625 C1.51421976 9.03661547 1.44790347 4.52469833 0 0 Z " fill="#151B18" transform="translate(118,108)"/>
<path d="M0 0 C0.66 0 1.32 0 2 0 C1.93039063 1.01320313 1.93039063 1.01320313 1.859375 2.046875 C1.48132384 7.73404931 1.48132384 7.73404931 4 12.625 C4.66 13.07875 5.32 13.5325 6 14 C5.67 14.99 5.34 15.98 5 17 C0.72588349 16.51530637 -0.95055114 15.458902 -3.625 12.125 C-5.66222509 9.62686425 -7.67720061 7.23833396 -10 5 C-9.67 4.01 -9.34 3.02 -9 2 C-7.515 2.99 -7.515 2.99 -6 4 C-3.35367713 3.6878236 -3.35367713 3.6878236 -1 3 C-0.67 2.01 -0.34 1.02 0 0 Z " fill="#434343" transform="translate(99,81)"/>
<path d="M0 0 C3.42216253 1.14072084 4.51543759 2.44236223 7 5 C7.886875 5.5775 8.77375 6.155 9.6875 6.75 C12.51339049 9.49951507 12.87353174 11.15819335 13.15625 14.99609375 C13 17 13 17 11.5 19.9375 C9.42382797 24.17635123 10.164399 27.46963316 11 32 C8.525 31.01 8.525 31.01 6 30 C5.67 30.66 5.34 31.32 5 32 C4.67 31.01 4.34 30.02 4 29 C5.32 29 6.64 29 8 29 C7.65213292 27.02463255 7.65213292 27.02463255 7 25 C6.34 24.67 5.68 24.34 5 24 C5.639375 23.21625 6.27875 22.4325 6.9375 21.625 C9.91205876 17.83919794 10.39356298 15.82114645 10 11 C9.04451019 9.04374022 9.04451019 9.04374022 7 8 C3.38976901 7.26958147 3.38976901 7.26958147 0 7 C0.99 6.67 1.98 6.34 3 6 C2.01 4.02 1.02 2.04 0 0 Z " fill="#080509" transform="translate(132,47)"/>
<path d="M0 0 C0.65272294 3.0244984 1.13871893 5.90016549 1 9 C-1.3125 11.5625 -1.3125 11.5625 -4 13 C-4.66 13 -5.32 13 -6 13 C-6.309375 11.906875 -6.61875 10.81375 -6.9375 9.6875 C-7.58337897 7.44592006 -8.2623117 5.2130649 -9 3 C-5.55930376 0.70620251 -4.27709699 0 0 0 Z " fill="#464646" transform="translate(54,14)"/>
<path d="M0 0 C4.75 0.75 4.75 0.75 7 3 C7.99 3 8.98 3 10 3 C10 3.66 10 4.32 10 5 C9.34 5 8.68 5 8 5 C8 7.31 8 9.62 8 12 C0.69372694 9.88929889 0.69372694 9.88929889 -1 7 C-0.6875 3.3125 -0.6875 3.3125 0 0 Z " fill="#4D4D4D" transform="translate(129,86)"/>
<path d="M0 0 C0.66 0.33 1.32 0.66 2 1 C1.649375 1.721875 1.29875 2.44375 0.9375 3.1875 C-0.12026732 6.36080196 0.16381704 7.82250476 1 11 C1 11.99 1 12.98 1 14 C1.33 14.99 1.66 15.98 2 17 C2.26212751 19.6046321 2.44319914 22.20866821 2.62109375 24.8203125 C2.74613281 25.53960937 2.87117188 26.25890625 3 27 C3.66 27.33 4.32 27.66 5 28 C3.68 28 2.36 28 1 28 C1 27.01 1 26.02 1 25 C0.01 25 -0.98 25 -2 25 C-1.67 21.7 -1.34 18.4 -1 15 C-1.66 14.67 -2.32 14.34 -3 14 C-3.625 10.9375 -3.625 10.9375 -4 8 C-3.34 8 -2.68 8 -2 8 C-1.855625 7.236875 -1.71125 6.47375 -1.5625 5.6875 C-1 3 -1 3 0 0 Z " fill="#464646" transform="translate(36,66)"/>
<path d="M0 0 C0.598125 0.165 1.19625 0.33 1.8125 0.5 C4.25988354 1.05940195 5.63996734 0.75858193 8 0 C8.34707158 5.29284165 8.34707158 5.29284165 8 8 C6.1875 10 6.1875 10 4 11 C3.01 11 2.02 11 1 11 C0.63890458 9.35567294 0.28629924 7.7094792 -0.0625 6.0625 C-0.25972656 5.14597656 -0.45695312 4.22945312 -0.66015625 3.28515625 C-0.77230469 2.53105469 -0.88445313 1.77695313 -1 1 C-0.67 0.67 -0.34 0.34 0 0 Z " fill="#464646" transform="translate(56,12)"/>
<path d="M0 0 C0 1.32 0 2.64 0 4 C0.66 3.34 1.32 2.68 2 2 C2.33 4.64 2.66 7.28 3 10 C-1.455 10.495 -1.455 10.495 -6 11 C-6.36601307 3.5577342 -6.36601307 3.5577342 -4.6875 1 C-3 0 -3 0 0 0 Z " fill="#515151" transform="translate(92,128)"/>
<path d="M0 0 C1.875 1.3125 1.875 1.3125 3 3 C3 3.99 3 4.98 3 6 C2.34 6 1.68 6 1 6 C1 6.66 1 7.32 1 8 C-0.32 8 -1.64 8 -3 8 C-3 8.66 -3 9.32 -3 10 C-4.32 9.67 -5.64 9.34 -7 9 C-6.67 8.01 -6.34 7.02 -6 6 C-6.87914688 3.3430809 -6.87914688 3.3430809 -8 1 C-5.20129973 -0.39935013 -3.09501208 -0.25265405 0 0 Z " fill="#555555" transform="translate(23,96)"/>
<path d="M0 0 C-0.66 2.31 -1.32 4.62 -2 7 C1.465 6.505 1.465 6.505 5 6 C4.67 6.66 4.34 7.32 4 8 C1.71484375 8.6328125 1.71484375 8.6328125 -1.0625 9.125 C-1.98160156 9.29257813 -2.90070312 9.46015625 -3.84765625 9.6328125 C-4.91306641 9.81457031 -4.91306641 9.81457031 -6 10 C-6.33 9.01 -6.66 8.02 -7 7 C-10.3 6.67 -13.6 6.34 -17 6 C-17 5.34 -17 4.68 -17 4 C-14.21207647 3.07069216 -11.77881925 2.98330493 -8.875 3.0625 C-4.98538931 3.44913022 -4.98538931 3.44913022 -3 1 C-3.99 0.67 -4.98 0.34 -6 0 C-3.50907189 -1.24546405 -2.58919267 -0.7767578 0 0 Z " fill="#1D1D1D" transform="translate(66,132)"/>
<path d="M0 0 C0.66 0 1.32 0 2 0 C2.33 0.66 2.66 1.32 3 2 C3.99 2.66 4.98 3.32 6 4 C3.69 5.98 1.38 7.96 -1 10 C-7.875 6.375 -7.875 6.375 -9 3 C-6.525 3.495 -6.525 3.495 -4 4 C-4 3.34 -4 2.68 -4 2 C-2.68 2 -1.36 2 0 2 C0 1.34 0 0.68 0 0 Z " fill="#19141B" transform="translate(24,102)"/>
<path d="M0 0 C0.825 0.61875 1.65 1.2375 2.5 1.875 C6.1512226 4.33826501 9.71362502 5.1131638 14 6 C14 6.66 14 7.32 14 8 C12.20963542 8.9765625 10.41927083 9.953125 8.62890625 10.9296875 C6.83381685 11.91410024 6.83381685 11.91410024 6 14 C5.01 14 4.02 14 3 14 C2.67 11.36 2.34 8.72 2 6 C1.01 6.495 1.01 6.495 0 7 C0 4.69 0 2.38 0 0 Z " fill="#323A36" transform="translate(91,126)"/>
<path d="M0 0 C2.475 0.99 2.475 0.99 5 2 C4.814375 2.721875 4.62875 3.44375 4.4375 4.1875 C3.98004693 7.12826973 4.26483643 9.14103058 5 12 C4.34 12 3.68 12 3 12 C2.67 12.66 2.34 13.32 2 14 C1.67 12.68 1.34 11.36 1 10 C-0.32 9.67 -1.64 9.34 -3 9 C-3 6.36 -3 3.72 -3 1 C-2.01 2.485 -2.01 2.485 -1 4 C-0.67 2.68 -0.34 1.36 0 0 Z M-1 12 C-0.01 12.495 -0.01 12.495 1 13 C1 13.66 1 14.32 1 15 C0.34 15 -0.32 15 -1 15 C-1 14.01 -1 13.02 -1 12 Z " fill="#060606" transform="translate(29,62)"/>
<path d="M0 0 C1.2065625 0.0309375 1.2065625 0.0309375 2.4375 0.0625 C2.1075 1.0525 1.7775 2.0425 1.4375 3.0625 C0.4475 2.7325 -0.5425 2.4025 -1.5625 2.0625 C-1.30607696 3.98114771 -1.03176564 5.89740994 -0.75 7.8125 C-0.59917969 8.87984375 -0.44835937 9.9471875 -0.29296875 11.046875 C0.45070407 14.11701094 1.36515472 15.72330478 3.4375 18.0625 C3.1075 18.7225 2.7775 19.3825 2.4375 20.0625 C0.4575 18.4125 -1.5225 16.7625 -3.5625 15.0625 C-3.5625 17.3725 -3.5625 19.6825 -3.5625 22.0625 C-4.2225 21.7325 -4.8825 21.4025 -5.5625 21.0625 C-5.5625 17.7625 -5.5625 14.4625 -5.5625 11.0625 C-4.9025 11.0625 -4.2425 11.0625 -3.5625 11.0625 C-3.57410156 10.35222656 -3.58570313 9.64195313 -3.59765625 8.91015625 C-3.60667969 7.99105469 -3.61570312 7.07195313 -3.625 6.125 C-3.63660156 5.20847656 -3.64820313 4.29195312 -3.66015625 3.34765625 C-3.52086326 0.08820018 -3.27895972 0.07997463 0 0 Z " fill="#030806" transform="translate(17.5625,37.9375)"/>
<path d="M0 0 C3.96670899 0.44074544 6.68811135 1.82361603 10 4 C9.01 4.33 8.02 4.66 7 5 C5.77479736 8.00847418 5.77479736 8.00847418 5 11 C0.125 8.125 0.125 8.125 -1 7 C-1.125 4 -1.125 4 -1 1 C-0.67 0.67 -0.34 0.34 0 0 Z " fill="#515151" transform="translate(126,96)"/>
<path d="M0 0 C1.45792884 -0.05399736 2.91642712 -0.09279177 4.375 -0.125 C5.18710937 -0.14820312 5.99921875 -0.17140625 6.8359375 -0.1953125 C9 0 9 0 11 2 C11.125 4.625 11.125 4.625 11 7 C8.03 7.66 5.06 8.32 2 9 C1.67 8.34 1.34 7.68 1 7 C1.66 6.67 2.32 6.34 3 6 C2.01 4.02 1.02 2.04 0 0 Z " fill="#555555" transform="translate(11,86)"/>
<path d="M0 0 C0.99 0 1.98 0 3 0 C3.84098656 4.01804691 4.05404945 7.01803543 3 11 C0 12 0 12 -3.1875 10.5625 C-4.115625 10.046875 -5.04375 9.53125 -6 9 C-2.18181818 2.45454545 -2.18181818 2.45454545 0 0 Z " fill="#060707" transform="translate(43,15)"/>
<path d="M0 0 C-0.66 1.98 -1.32 3.96 -2 6 C-1.34 6.66 -0.68 7.32 0 8 C-9.41002278 11.25968109 -9.41002278 11.25968109 -14 12 C-12.25 5.25 -12.25 5.25 -10 3 C-9.67 4.65 -9.34 6.3 -9 8 C-8.01 8 -7.02 8 -6 8 C-6.33 7.01 -6.66 6.02 -7 5 C-2.25 0 -2.25 0 0 0 Z " fill="#3F3F3F" transform="translate(85,131)"/>
<path d="M0 0 C0.33 0 0.66 0 1 0 C1.06058594 0.68707031 1.12117188 1.37414062 1.18359375 2.08203125 C1.26738281 2.98308594 1.35117188 3.88414063 1.4375 4.8125 C1.51871094 5.70582031 1.59992188 6.59914063 1.68359375 7.51953125 C1.93489767 10.12743559 1.93489767 10.12743559 3 13 C2.195625 12.979375 1.39125 12.95875 0.5625 12.9375 C-1.93354885 12.70366379 -1.93354885 12.70366379 -3 14 C-4.66617115 14.04063832 -6.33388095 14.042721 -8 14 C-6.68 13.34 -5.36 12.68 -4 12 C-5.32 12 -6.64 12 -8 12 C-8 11.34 -8 10.68 -8 10 C-4.535 9.505 -4.535 9.505 -1 9 C-0.67 7.68 -0.34 6.36 0 5 C-0.99 5 -1.98 5 -3 5 C-3 5.66 -3 6.32 -3 7 C-3.99 7 -4.98 7 -6 7 C-6.33 5.35 -6.66 3.7 -7 2 C-4.50907189 0.75453595 -3.58919267 1.2232422 -1 2 C-0.67 1.34 -0.34 0.68 0 0 Z " fill="#3B4540" transform="translate(87,111)"/>
<path d="M0 0 C6.875 1.875 6.875 1.875 8 3 C8.04092937 5.33297433 8.04241723 7.66705225 8 10 C7.01 10.33 6.02 10.66 5 11 C0.07692308 6.81538462 0.07692308 6.81538462 -0.3125 2.6875 C-0.209375 1.800625 -0.10625 0.91375 0 0 Z " fill="#4F4F4F" transform="translate(12,64)"/>
<path d="M0 0 C0 2.73922932 -0.04778783 3.14336348 -1 6 C-4.21451269 7.60725635 -7.43612536 7.05748185 -11 7 C-7.60483871 -1.48790323 -7.60483871 -1.48790323 0 0 Z " fill="#505050" transform="translate(64,129)"/>
<path d="M0 0 C3.43595166 1.52708963 6.11912454 3.59927045 9 6 C8.34 7.65 7.68 9.3 7 11 C6.01 10.34 5.02 9.68 4 9 C3.67 9.66 3.34 10.32 3 11 C2.34 10.34 1.68 9.68 1 9 C0.01 9 -0.98 9 -2 9 C-2 8.01 -2 7.02 -2 6 C-1.67 6 -1.34 6 -1 6 C-0.67 4.02 -0.34 2.04 0 0 Z " fill="#575757" transform="translate(14,53)"/>
<path d="M0 0 C0.99 0.66 1.98 1.32 3 2 C5.0492094 2.45139459 5.0492094 2.45139459 7.1875 2.625 C8.445625 2.74875 9.70375 2.8725 11 3 C11.33 4.32 11.66 5.64 12 7 C11.34 7 10.68 7 10 7 C10 7.99 10 8.98 10 10 C8.37399059 9.9129995 6.74910322 9.8048219 5.125 9.6875 C4.22007813 9.62949219 3.31515625 9.57148437 2.3828125 9.51171875 C0 9 0 9 -2 6 C-0.35 6 1.3 6 3 6 C3.33 5.34 3.66 4.68 4 4 C2.68 3.34 1.36 2.68 0 2 C0 1.34 0 0.68 0 0 Z " fill="#291F2D" transform="translate(101,91)"/>
<path d="M0 0 C0.99 0.33 1.98 0.66 3 1 C2.96519531 1.93972656 2.96519531 1.93972656 2.9296875 2.8984375 C2.91164063 3.71570312 2.89359375 4.53296875 2.875 5.375 C2.85179687 6.18710937 2.82859375 6.99921875 2.8046875 7.8359375 C2.78629949 10.21342243 2.78629949 10.21342243 5 12 C7.44012949 12.24287489 7.44012949 12.24287489 10.125 12.125 C11.03507812 12.10695313 11.94515625 12.08890625 12.8828125 12.0703125 C13.58148438 12.04710937 14.28015625 12.02390625 15 12 C15.66 13.32 16.32 14.64 17 16 C16.01 16.33 15.02 16.66 14 17 C13.67 16.34 13.34 15.68 13 15 C10.74053416 14.64442669 8.5100223 14.55669494 6.2265625 14.44140625 C3.54136489 13.9090776 2.60666003 13.19231353 1 11 C1 10.01 1 9.02 1 8 C0.34 8 -0.32 8 -1 8 C-1.33 9.98 -1.66 11.96 -2 14 C-2.33 14 -2.66 14 -3 14 C-3 11.03 -3 8.06 -3 5 C-2.67 5.66 -2.34 6.32 -2 7 C-1.01 7 -0.02 7 1 7 C0.34 6.34 -0.32 5.68 -1 5 C-0.625 2.375 -0.625 2.375 0 0 Z " fill="#373940" transform="translate(57,37)"/>
<path d="M0 0 C0.33 1.32 0.66 2.64 1 4 C2.32 4.33 3.64 4.66 5 5 C4.01 6.485 4.01 6.485 3 8 C3 7.34 3 6.68 3 6 C-2.31411494 7.92391649 -2.31411494 7.92391649 -6 12 C-5.01 12.33 -4.02 12.66 -3 13 C-2.01 14.485 -2.01 14.485 -1 16 C-2.6875 16.8125 -2.6875 16.8125 -5 17 C-7.75 14.5625 -7.75 14.5625 -10 12 C-9.44570313 11.46890625 -8.89140625 10.9378125 -8.3203125 10.390625 C-7.59585938 9.68421875 -6.87140625 8.9778125 -6.125 8.25 C-5.04605469 7.20585938 -5.04605469 7.20585938 -3.9453125 6.140625 C-2.13520321 4.14877783 -1.05151914 2.4572342 0 0 Z " fill="#1F1523" transform="translate(60,105)"/>
<path d="M0 0 C0.66 0 1.32 0 2 0 C2 0.66 2 1.32 2 2 C2.66 2 3.32 2 4 2 C5.625 3.5 5.625 3.5 7 5 C6.34 6.32 5.68 7.64 5 9 C1.20442119 9 -0.62902617 8.49821059 -4 7 C-2.79618552 4.50638429 -1.54571278 2.31856917 0 0 Z " fill="#444244" transform="translate(109,20)"/>
<path d="M0 0 C0.36629408 4.27343092 -0.59185923 6.48812804 -3 10 C-0.525 10.99 -0.525 10.99 2 12 C-2.52092968 13.45606519 -5.51648796 12.27032841 -10 11 C-10 10.01 -10 9.02 -10 8 C-7.525 8.495 -7.525 8.495 -5 9 C-5 8.34 -5 7.68 -5 7 C-5.66 7 -6.32 7 -7 7 C-6.04004484 4.12013451 -3.56234645 0 0 0 Z " fill="#0B090B" transform="translate(47,121)"/>
<path d="M0 0 C5.42857143 -0.36190476 5.42857143 -0.36190476 7.875 1.1875 C9.34781139 3.56036279 9.22223194 5.25913944 9 8 C3.63636364 8 3.63636364 8 1 6 C0.25 2.875 0.25 2.875 0 0 Z " fill="#515151" transform="translate(11,75)"/>
<path d="M0 0 C1.875 0.625 1.875 0.625 4 2 C5.68271138 5.89680529 6.40164077 9.81148536 7 14 C5.1875 13.9375 5.1875 13.9375 3 13 C1.3125 9.5625 1.3125 9.5625 0 6 C-0.33 5.34 -0.66 4.68 -1 4 C-0.5625 1.875 -0.5625 1.875 0 0 Z " fill="#2B2B2B" transform="translate(28,87)"/>
<path d="M0 0 C-1.1875 2.5 -1.1875 2.5 -3 5 C-5.6875 5.3125 -5.6875 5.3125 -8 5 C-8.33 5.66 -8.66 6.32 -9 7 C-9 6.34 -9 5.68 -9 5 C-9.66 5 -10.32 5 -11 5 C-10.6875 3.125 -10.6875 3.125 -10 1 C-6.1496895 -1.56687367 -4.41430237 -0.83288724 0 0 Z " fill="#202723" transform="translate(109,111)"/>
<path d="M0 0 C2.46800047 1.15173355 4.04783565 2.04783565 6 4 C5.625 7.625 5.625 7.625 5 11 C4.01 11.33 3.02 11.66 2 12 C2 9.36 2 6.72 2 4 C1.34 4 0.68 4 0 4 C0 5.98 0 7.96 0 10 C-0.33 10 -0.66 10 -1 10 C-1.125 2.25 -1.125 2.25 0 0 Z " fill="#535353" transform="translate(25,34)"/>
<path d="M0 0 C0.33 0 0.66 0 1 0 C1 2.64 1 5.28 1 8 C1.66 8 2.32 8 3 8 C3 6.02 3 4.04 3 2 C3.66 2.33 4.32 2.66 5 3 C5.36923077 8.41538462 5.36923077 8.41538462 3.5 11.375 C3.005 11.91125 2.51 12.4475 2 13 C0.01206933 11.61709171 -0.88705658 10.43832802 -1.4921875 8.08984375 C-1.8125 5.9375 -1.8125 5.9375 -2 2 C-1.34 1.34 -0.68 0.68 0 0 Z " fill="#535353" transform="translate(122,104)"/>
<path d="M0 0 C0.99 0.33 1.98 0.66 3 1 C3.5625 2.875 3.5625 2.875 4 5 C4.99 6.485 4.99 6.485 6 8 C3 10 3 10 0 10 C-1.98 6.535 -1.98 6.535 -4 3 C-2.68 2.67 -1.36 2.34 0 2 C0 1.34 0 0.68 0 0 Z " fill="#4A4A4A" transform="translate(125,35)"/>
<path d="M0 0 C1.125 3.75 1.125 3.75 0 6 C-2.32156597 6.40729228 -4.6568787 6.74438677 -7 7 C-6.01 8.98 -5.02 10.96 -4 13 C-7.73044765 11.75651745 -8.79540326 10.19286425 -11 7 C-11 6.01 -11 5.02 -11 4 C-9.741875 3.896875 -8.48375 3.79375 -7.1875 3.6875 C-4.39500343 3.35141192 -3.25566879 3.19974124 -1 1.4375 C-0.67 0.963125 -0.34 0.48875 0 0 Z " fill="#141414" transform="translate(22,90)"/>
<path d="M0 0 C4 4.875 4 4.875 4 6 C1.36 6 -1.28 6 -4 6 C-4.33 7.98 -4.66 9.96 -5 12 C-7.56616632 8.15075052 -7.55097676 5.5650696 -8 1 C-7.401875 1.33 -6.80375 1.66 -6.1875 2 C-3.94613529 3.20787988 -3.94613529 3.20787988 -1 3 C-0.67 3 -0.34 3 0 3 C0 2.01 0 1.02 0 0 Z " fill="#161616" transform="translate(17,59)"/>
<path d="M0 0 C0.33 2.97 0.66 5.94 1 9 C0.01 9.33 -0.98 9.66 -2 10 C-4.5 7.75 -4.5 7.75 -7 5 C-7 3.68 -7 2.36 -7 1 C-4 0 -4 0 0 0 Z " fill="#313834" transform="translate(27,38)"/>
<path d="M0 0 C0.33 0.99 0.66 1.98 1 3 C3.31 3.33 5.62 3.66 8 4 C6.68 6.31 5.36 8.62 4 11 C1.525 10.01 1.525 10.01 -1 9 C-0.67 6.03 -0.34 3.06 0 0 Z " fill="#463D4A" transform="translate(100,15)"/>
<path d="M0 0 C-0.92652701 1.17539996 -1.86663387 2.34010577 -2.8125 3.5 C-3.33457031 4.1496875 -3.85664062 4.799375 -4.39453125 5.46875 C-6 7 -6 7 -9 7 C-9 6.34 -9 5.68 -9 5 C-9.66 4.67 -10.32 4.34 -11 4 C-10.34 4 -9.68 4 -9 4 C-8.71125 3.360625 -8.4225 2.72125 -8.125 2.0625 C-6.00428289 -1.82548136 -3.86823244 -0.91616031 0 0 Z " fill="#3F3543" transform="translate(85,13)"/>
<path d="M0 0 C0.66 0.99 1.32 1.98 2 3 C5.05429073 4.21284876 5.05429073 4.21284876 8 5 C6 6 6 6 3.0625 6.375 C-0.09278412 7.01893554 -1.06377998 7.52594109 -3 10 C-3 8.02 -3 6.04 -3 4 C-4.65 4 -6.3 4 -8 4 C-5.53721199 1.53721199 -3.29323018 1.00228745 0 0 Z " fill="#19181A" transform="translate(78,7)"/>
<path d="M0 0 C1.134375 0.020625 2.26875 0.04125 3.4375 0.0625 C3.7675 0.7225 4.0975 1.3825 4.4375 2.0625 C-0.19015919 4.60771255 -4.4521856 5.9170847 -9.5625 7.0625 C-9.2325 6.4025 -8.9025 5.7425 -8.5625 5.0625 C-9.2225 4.4025 -9.8825 3.7425 -10.5625 3.0625 C-9.1084375 2.5984375 -9.1084375 2.5984375 -7.625 2.125 C-1.5798913 0.02771739 -1.5798913 0.02771739 0 0 Z " fill="#323232" transform="translate(62.5625,26.9375)"/>
<path d="M0 0 C0.66 0.33 1.32 0.66 2 1 C1.40361667 2.27450447 0.79752584 3.54446877 0.1875 4.8125 C-0.14894531 5.52019531 -0.48539062 6.22789063 -0.83203125 6.95703125 C-2.00645471 9.01129035 -3.25628016 10.41616278 -5 12 C-5.99 11.67 -6.98 11.34 -8 11 C-7.67 10.01 -7.34 9.02 -7 8 C-6.34 8.33 -5.68 8.66 -5 9 C-5.33 7.68 -5.66 6.36 -6 5 C-4.02 3.35 -2.04 1.7 0 0 Z " fill="#080509" transform="translate(118,89)"/>
<path d="M0 0 C3.25 -0.375 3.25 -0.375 6 0 C6.33 0.99 6.66 1.98 7 3 C4.69 3.33 2.38 3.66 0 4 C0.33 4.99 0.66 5.98 1 7 C-0.65 6.67 -2.3 6.34 -4 6 C-2.375 3 -2.375 3 0 0 Z " fill="#555555" transform="translate(47,125)"/>
<path d="M0 0 C0.94875 0.04125 1.8975 0.0825 2.875 0.125 C2.33359375 0.84816406 2.33359375 0.84816406 1.78125 1.5859375 C1.3171875 2.21757812 0.853125 2.84921875 0.375 3.5 C-0.0890625 4.12648437 -0.553125 4.75296875 -1.03125 5.3984375 C-2.30338101 7.06594613 -2.30338101 7.06594613 -2.125 9.125 C-3.445 9.455 -4.765 9.785 -6.125 10.125 C-5.16515544 0.20660622 -5.16515544 0.20660622 0 0 Z " fill="#555555" transform="translate(81.125,129.875)"/>
<path d="M0 0 C-0.66 3.63 -1.32 7.26 -2 11 C-2.66 11 -3.32 11 -4 11 C-4 8.69 -4 6.38 -4 4 C-5.98 4.66 -7.96 5.32 -10 6 C-10 5.34 -10 4.68 -10 4 C-3.375 0 -3.375 0 0 0 Z " fill="#101010" transform="translate(68,8)"/>
<path d="M0 0 C6.09468956 2.61200981 9.11452417 7.22904834 12 13 C11.01 13 10.02 13 9 13 C7.68359375 11.46875 7.68359375 11.46875 6.4375 9.5 C5.24822744 7.56698031 5.24822744 7.56698031 4 6 C3.34 6 2.68 6 2 6 C0.375 3.5 0.375 3.5 -1 1 C-0.67 0.67 -0.34 0.34 0 0 Z " fill="#262A28" transform="translate(73,98)"/>
<path d="M0 0 C0.66 0 1.32 0 2 0 C2 0.66 2 1.32 2 2 C3.32 2.66 4.64 3.32 6 4 C5.67 5.32 5.34 6.64 5 8 C1 8 1 8 -1 7 C-1.04254356 5.00045254 -1.04080783 2.99958364 -1 1 C-0.67 0.67 -0.34 0.34 0 0 Z " fill="#565555" transform="translate(31,29)"/>
<path d="M0 0 C1.89575251 -0.02721176 3.79161979 -0.04649136 5.6875 -0.0625 C6.74324219 -0.07410156 7.79898438 -0.08570312 8.88671875 -0.09765625 C11.72410262 -0.00865425 14.2438919 0.35060162 17 1 C16.67 1.99 16.34 2.98 16 4 C15.0925 3.835 14.185 3.67 13.25 3.5 C9.88912497 2.89862854 9.88912497 2.89862854 6 3 C4 3 2 3 0 3 C0 2.01 0 1.02 0 0 Z " fill="#0E0E0E" transform="translate(64,111)"/>
<path d="M0 0 C0 3 0 3 -2 6 C-2.66 6 -3.32 6 -4 6 C-4 6.66 -4 7.32 -4 8 C-5.28913487 8.67154933 -6.58140204 9.33708859 -7.875 10 C-8.59429687 10.37125 -9.31359375 10.7425 -10.0546875 11.125 C-12 12 -12 12 -14 12 C-14 11.01 -14 10.02 -14 9 C-12.989375 8.62875 -11.97875 8.2575 -10.9375 7.875 C-6.59899846 6.04220445 -3.40426247 3.19731642 0 0 Z " fill="#050C09" transform="translate(119,123)"/>
<path d="M0 0 C2.0625 0.4375 2.0625 0.4375 4 1 C4 1.66 4 2.32 4 3 C4.66 3.33 5.32 3.66 6 4 C3.69 5.98 1.38 7.96 -1 10 C-1.09765625 3.06640625 -1.09765625 3.06640625 -1 1 C-0.67 0.67 -0.34 0.34 0 0 Z " fill="#434343" transform="translate(67,10)"/>
<path d="M0 0 C1.5 1.1875 1.5 1.1875 3 3 C3.1875 5.6875 3.1875 5.6875 3 8 C2.34 7.34 1.68 6.68 1 6 C0.34 7.65 -0.32 9.3 -1 11 C-3 9 -3 9 -4 7 C-4.66 6.67 -5.32 6.34 -6 6 C-2.25 3 -2.25 3 0 3 C0 2.01 0 1.02 0 0 Z " fill="#474747" transform="translate(73,130)"/>
<path d="M0 0 C0.33 0.66 0.66 1.32 1 2 C3.34907875 2.68931344 3.34907875 2.68931344 6.0625 3.125 C6.98160156 3.29257812 7.90070313 3.46015625 8.84765625 3.6328125 C9.91306641 3.81457031 9.91306641 3.81457031 11 4 C11 4.66 11 5.32 11 6 C10.01 6.66 9.02 7.32 8 8 C6.32576317 9.32381517 4.65788785 10.65576661 3 12 C4.875 7.125 4.875 7.125 6 6 C4.02 5.34 2.04 4.68 0 4 C0 2.68 0 1.36 0 0 Z " fill="#0A0A0A" transform="translate(101,14)"/>
<path d="M0 0 C1.98 0.66 3.96 1.32 6 2 C6 2.99 6 3.98 6 5 C4.68 5 3.36 5 2 5 C2 5.66 2 6.32 2 7 C0.68 6.67 -0.64 6.34 -2 6 C-1.34 4.02 -0.68 2.04 0 0 Z " fill="#4A4A4A" transform="translate(18,99)"/>
<path d="M0 0 C0.66 0 1.32 0 2 0 C2.1953125 6.0546875 2.1953125 6.0546875 2 8 C1.34 8.66 0.68 9.32 0 10 C-1.32 10 -2.64 10 -4 10 C-2.66666667 6.66666667 -1.33333333 3.33333333 0 0 Z " fill="#575757" transform="translate(62,12)"/>
<path d="M0 0 C4.8 2.46153846 4.8 2.46153846 5.8125 5.1875 C5.874375 5.785625 5.93625 6.38375 6 7 C-0.75 5.375 -0.75 5.375 -3 2 C-2.01 1.34 -1.02 0.68 0 0 Z " fill="#353C3D" transform="translate(67,59)"/>
<path d="M0 0 C2.64 1.32 5.28 2.64 8 4 C8 4.99 8 5.98 8 7 C6.68 6.67 5.36 6.34 4 6 C4 6.66 4 7.32 4 8 C2.02 8.66 0.04 9.32 -2 10 C-2 8 -2 8 0 5.875 C0.66 5.25625 1.32 4.6375 2 4 C1.34 2.68 0.68 1.36 0 0 Z " fill="#0C0B0C" transform="translate(121,29)"/>
<path d="M0 0 C3.375 0.3125 3.375 0.3125 7 1 C7.66 1.99 8.32 2.98 9 4 C8.01 4.99 7.02 5.98 6 7 C2.125 5.25 2.125 5.25 1 3 C2.32 3 3.64 3 5 3 C2.03 2.505 2.03 2.505 -1 2 C-0.67 1.34 -0.34 0.68 0 0 Z " fill="#545454" transform="translate(115,30)"/>
<path d="M0 0 C2 3 2 3 3 6 C1.7934375 5.9690625 1.7934375 5.9690625 0.5625 5.9375 C-1.93354885 5.70366379 -1.93354885 5.70366379 -3 7 C-4.66617115 7.04063832 -6.33388095 7.042721 -8 7 C-6.68 6.34 -5.36 5.68 -4 5 C-5.32 5 -6.64 5 -8 5 C-8 4.34 -8 3.68 -8 3 C-6.865625 2.87625 -5.73125 2.7525 -4.5625 2.625 C-3.386875 2.41875 -2.21125 2.2125 -1 2 C-0.67 1.34 -0.34 0.68 0 0 Z " fill="#2E3330" transform="translate(87,118)"/>
<path d="M0 0 C0.66 0 1.32 0 2 0 C2.66 2.31 3.32 4.62 4 7 C3.01 7.33 2.02 7.66 1 8 C-1.1875 6.5625 -1.1875 6.5625 -3 5 C-1.125 1.125 -1.125 1.125 0 0 Z " fill="#444946" transform="translate(42,19)"/>
<path d="M0 0 C3.04189468 2.94971605 5.96422641 5.98726771 8.8125 9.125 C9.41707031 9.78757812 10.02164063 10.45015625 10.64453125 11.1328125 C12 13 12 13 12 16 C9.14832279 13.23219565 6.39619213 10.40328055 3.75 7.4375 C3.24984375 6.87933594 2.7496875 6.32117187 2.234375 5.74609375 C0.88407587 3.83601872 0.4199406 2.28467682 0 0 Z " fill="#31133D" transform="translate(75,56)"/>
<path d="M0 0 C0.45375 0.66 0.9075 1.32 1.375 2 C5.33232033 5.0151012 9.19004145 4.33045517 14 4 C14.66 5.32 15.32 6.64 16 8 C15.01 8.33 14.02 8.66 13 9 C12.67 8.34 12.34 7.68 12 7 C9.74053416 6.64442669 7.5100223 6.55669494 5.2265625 6.44140625 C2.54136489 5.9090776 1.60666003 5.19231353 0 3 C0 2.01 0 1.02 0 0 Z " fill="#2C1D32" transform="translate(58,45)"/>
<path d="M0 0 C0.99 0 1.98 0 3 0 C2.67 0.99 2.34 1.98 2 3 C2.87914688 5.6569191 2.87914688 5.6569191 4 8 C2.35 8 0.7 8 -1 8 C-0.67 7.34 -0.34 6.68 0 6 C-0.33 5.67 -0.66 5.34 -1 5 C-2 4 -3 3 -4 2 C-2.68 2 -1.36 2 0 2 C0 1.34 0 0.68 0 0 Z " fill="#575757" transform="translate(131,45)"/>
<path d="M0 0 C3.38018638 1.12672879 4.5572011 2.48086363 7 5 C7.99 5.66 8.98 6.32 10 7 C9.67 7.99 9.34 8.98 9 10 C8.34 9.34 7.68 8.68 7 8 C4.67724823 7.59952556 2.34260643 7.2602896 0 7 C0.99 6.67 1.98 6.34 3 6 C2.01 4.02 1.02 2.04 0 0 Z " fill="#120A15" transform="translate(132,47)"/>
<path d="M0 0 C2.64 1.98 5.28 3.96 8 6 C7.67 6.99 7.34 7.98 7 9 C6.01 8.67 5.02 8.34 4 8 C3.67 8.66 3.34 9.32 3 10 C2.01 9.34 1.02 8.68 0 8 C0.99 7.01 1.98 6.02 3 5 C2.2575 4.319375 2.2575 4.319375 1.5 3.625 C0 2 0 2 0 0 Z " fill="#070707" transform="translate(127,37)"/>
<path d="M0 0 C0.33 1.32 0.66 2.64 1 4 C0.030625 4.12375 -0.93875 4.2475 -1.9375 4.375 C-3.4534375 4.684375 -3.4534375 4.684375 -5 5 C-5.33 5.66 -5.66 6.32 -6 7 C-6.66 6.34 -7.32 5.68 -8 5 C-3.375 0 -3.375 0 0 0 Z " fill="#2E2D2F" transform="translate(139,72)"/>
<path d="M0 0 C2.625 0.9375 2.625 0.9375 5 2 C4.34 3.98 3.68 5.96 3 8 C1.5 6.625 1.5 6.625 0 5 C0 4.34 0 3.68 0 3 C-0.66 3 -1.32 3 -2 3 C-2 2.34 -2 1.68 -2 1 C-1.34 0.67 -0.68 0.34 0 0 Z " fill="#4D4F4E" transform="translate(18,56)"/>
<path d="M0 0 C0.33 0 0.66 0 1 0 C1 1.98 1 3.96 1 6 C2.32 6.33 3.64 6.66 5 7 C2.09399739 8.25664978 0.20395416 9 -3 9 C-1.125 2.25 -1.125 2.25 0 0 Z " fill="#070707" transform="translate(74,134)"/>
<path d="M0 0 C1.66832577 2.50248865 2.62381674 4.41149187 3.625 7.1875 C3.88539062 7.90292969 4.14578125 8.61835937 4.4140625 9.35546875 C4.60742188 9.89816406 4.80078125 10.44085938 5 11 C4.01 11.495 4.01 11.495 3 12 C2.34 11.67 1.68 11.34 1 11 C0.33203125 8.75 0.33203125 8.75 -0.1875 6 C-0.36667969 5.0925 -0.54585937 4.185 -0.73046875 3.25 C-0.81941406 2.5075 -0.90835938 1.765 -1 1 C-0.67 0.67 -0.34 0.34 0 0 Z " fill="#0C0B0C" transform="translate(38,82)"/>
<path d="M0 0 C0.33 0 0.66 0 1 0 C1.33 4.62 1.66 9.24 2 14 C-2 9 -2 9 -2 6 C-1.36893571 3.98848259 -0.70626239 1.98636298 0 0 Z " fill="#1A1A1A" transform="translate(38,71)"/>
<path d="M0 0 C1.32 0 2.64 0 4 0 C3.5205537 4.21912747 2.83374881 6.79663178 0 10 C-0.74926071 6.33694766 -1.2380014 3.57644848 0 0 Z " fill="#2E3331" transform="translate(33,63)"/>
<path d="M0 0 C3.465 1.485 3.465 1.485 7 3 C7 2.34 7 1.68 7 1 C7.66 1 8.32 1 9 1 C8.67 2.32 8.34 3.64 8 5 C6.68 5 5.36 5 4 5 C4 5.66 4 6.32 4 7 C3.34 7 2.68 7 2 7 C2.33 5.68 2.66 4.36 3 3 C2.01 2.67 1.02 2.34 0 2 C0 1.34 0 0.68 0 0 Z " fill="#070707" transform="translate(113,22)"/>
<path d="M0 0 C0.433125 0.474375 0.86625 0.94875 1.3125 1.4375 C3.02309613 3.23686957 3.02309613 3.23686957 6 4 C4.1875 6 4.1875 6 2 8 C1.01 8 0.02 8 -1 8 C-1.04241723 5.66705225 -1.04092937 3.33297433 -1 1 C-0.67 0.67 -0.34 0.34 0 0 Z " fill="#060606" transform="translate(95,132)"/>
<path d="M0 0 C0 1.98 0 3.96 0 6 C-1.32 6 -2.64 6 -4 6 C-4 5.34 -4 4.68 -4 4 C-4.66 3.67 -5.32 3.34 -6 3 C-6 2.34 -6 1.68 -6 1 C-4 0 -4 0 0 0 Z " fill="#181818" transform="translate(77,122)"/>
<path d="M0 0 C0.66 0.33 1.32 0.66 2 1 C1.01 3.97 0.02 6.94 -1 10 C-1.99 9.34 -2.98 8.68 -4 8 C-3.50168276 4.31245243 -2.89932357 2.39509338 0 0 Z " fill="#312A34" transform="translate(123,84)"/>
<path d="M0 0 C0.66 0 1.32 0 2 0 C2 1.32 2 2.64 2 4 C2.66 4 3.32 4 4 4 C4 4.66 4 5.32 4 6 C2.68 5.67 1.36 5.34 0 5 C-0.66 6.98 -1.32 8.96 -2 11 C-2.95465783 8.83032311 -3.14401212 7.43671207 -2.3984375 5.17578125 C-1.64129615 3.4315257 -0.82390802 1.71372869 0 0 Z " fill="#060606" transform="translate(25,29)"/>
<path d="M0 0 C-1.32 1.65 -2.64 3.3 -4 5 C-5.9375 4.625 -5.9375 4.625 -8 4 C-8.33 3.34 -8.66 2.68 -9 2 C-5.86501708 0.14223235 -3.62528568 -0.20140476 0 0 Z " fill="#545454" transform="translate(28,105)"/>
<path d="M0 0 C2.76276177 0.52268466 5.3260876 1.10869587 8 2 C8.33 2.99 8.66 3.98 9 5 C8.01 5.33 7.02 5.66 6 6 C5.67 5.34 5.34 4.68 5 4 C4.01 4 3.02 4 2 4 C1.34 2.68 0.68 1.36 0 0 Z " fill="#0F0F0F" transform="translate(133,85)"/>
<path d="M0 0 C0.33 0 0.66 0 1 0 C0.67 3.3 0.34 6.6 0 10 C-0.99 9.67 -1.98 9.34 -3 9 C-3 6.36 -3 3.72 -3 1 C-2.01 2.485 -2.01 2.485 -1 4 C-0.67 2.68 -0.34 1.36 0 0 Z " fill="#333534" transform="translate(29,62)"/>
<path d="M0 0 C0.33 0.66 0.66 1.32 1 2 C0.67 2.99 0.34 3.98 0 5 C-1.65 5.33 -3.3 5.66 -5 6 C-5 5.01 -5 4.02 -5 3 C-5.99 2.67 -6.98 2.34 -8 2 C-6.865625 1.855625 -5.73125 1.71125 -4.5625 1.5625 C-1.19222799 1.38828522 -1.19222799 1.38828522 0 0 Z " fill="#2F2F2F" transform="translate(54,130)"/>
<path d="M0 0 C2.31 0 4.62 0 7 0 C7.66 1.32 8.32 2.64 9 4 C7.3125 4.8125 7.3125 4.8125 5 5 C2.25 2.5625 2.25 2.5625 0 0 Z " fill="#272628" transform="translate(50,117)"/>
<path d="M0 0 C1.32 0.66 2.64 1.32 4 2 C4 3.65 4 5.3 4 7 C2.0625 6.625 2.0625 6.625 0 6 C-1.24546405 3.50907189 -0.7767578 2.58919267 0 0 Z " fill="#252525" transform="translate(28,87)"/>
<path d="M0 0 C0.99 0 1.98 0 3 0 C5.1875 2.5 5.1875 2.5 7 5 C5.02 5 3.04 5 1 5 C0.67 5.66 0.34 6.32 0 7 C-0.38133299 5.0085944 -0.71325582 3.00720923 -1 1 C-0.67 0.67 -0.34 0.34 0 0 Z " fill="#2F2F2F" transform="translate(10,70)"/>
<path d="M0 0 C0 1.65 0 3.3 0 5 C-3.13349732 6.04449911 -3.98968256 5.93423645 -7 5 C-1.125 0 -1.125 0 0 0 Z " fill="#29222C" transform="translate(47,121)"/>
<path d="M0 0 C3 1 3 1 4.16796875 3.06640625 C4.50441406 3.89011719 4.84085938 4.71382813 5.1875 5.5625 C5.53167969 6.38878906 5.87585938 7.21507813 6.23046875 8.06640625 C6.48441406 8.70449219 6.73835937 9.34257813 7 10 C2.57320993 8.52440331 2.08567304 6.09942632 0 2 C0 1.34 0 0.68 0 0 Z " fill="#090909" transform="translate(8,83)"/>
<path d="M0 0 C1.22589844 0.01353516 1.22589844 0.01353516 2.4765625 0.02734375 C3.41628906 0.04474609 3.41628906 0.04474609 4.375 0.0625 C4.045 0.7225 3.715 1.3825 3.375 2.0625 C1.08984375 2.6953125 1.08984375 2.6953125 -1.6875 3.1875 C-2.60660156 3.35507813 -3.52570312 3.52265625 -4.47265625 3.6953125 C-5.53806641 3.87707031 -5.53806641 3.87707031 -6.625 4.0625 C-6.625 3.0725 -6.625 2.0825 -6.625 1.0625 C-4.21954362 -0.14022819 -2.67503047 -0.03821472 0 0 Z " fill="#040404" transform="translate(66.625,137.9375)"/>
<path d="M0 0 C5.625 -0.25 5.625 -0.25 9 2 C9 2.66 9 3.32 9 4 C8.071875 3.649375 7.14375 3.29875 6.1875 2.9375 C3.0197047 1.67617372 3.0197047 1.67617372 0 3 C0 2.01 0 1.02 0 0 Z " fill="#080808" transform="translate(64,111)"/>
<path d="M0 0 C4.875 1.75 4.875 1.75 6 4 C3.69 4.33 1.38 4.66 -1 5 C-1.33 4.34 -1.66 3.68 -2 3 C-1.34 2.67 -0.68 2.34 0 2 C0 1.34 0 0.68 0 0 Z " fill="#595959" transform="translate(14,90)"/>
<path d="M0 0 C1.65 0 3.3 0 5 0 C6 2 7 4 8 6 C2.33846154 4.52307692 2.33846154 4.52307692 0.625 1.875 C0.41875 1.25625 0.2125 0.6375 0 0 Z " fill="#454545" transform="translate(11,86)"/>
<path d="M0 0 C0.99 0.33 1.98 0.66 3 1 C3 3.97 3 6.94 3 10 C2.01 10.495 2.01 10.495 1 11 C0.67 7.37 0.34 3.74 0 0 Z " fill="#323232" transform="translate(138,77)"/>
<path d="M0 0 C0.268125 0.5775 0.53625 1.155 0.8125 1.75 C2.01719859 4.0325868 3.40798115 5.9737942 5 8 C4.67 8.66 4.34 9.32 4 10 C2.02 8.35 0.04 6.7 -2 5 C-1.34 3.35 -0.68 1.7 0 0 Z " fill="#1D2F26" transform="translate(16,48)"/>
<path d="M0 0 C2.31 0 4.62 0 7 0 C7 0.99 7 1.98 7 3 C5.35 3.33 3.7 3.66 2 4 C1.34 2.68 0.68 1.36 0 0 Z " fill="#535353" transform="translate(123,41)"/>
<path d="M0 0 C0.66 0 1.32 0 2 0 C2.6875 1.75 2.6875 1.75 3 4 C1.5625 6.25 1.5625 6.25 0 8 C-1 7 -1 7 -1.125 4 C-1 1 -1 1 0 0 Z " fill="#4E4E4E" transform="translate(31,29)"/>
<path d="M0 0 C2.375 0.3125 2.375 0.3125 5 1 C5.66 1.99 6.32 2.98 7 4 C6.34 4 5.68 4 5 4 C4.67 4.99 4.34 5.98 4 7 C3.566875 5.824375 3.566875 5.824375 3.125 4.625 C2.15087746 1.90328368 2.15087746 1.90328368 0 0 Z " fill="#3F3F3F" transform="translate(129,86)"/>
<path d="M0 0 C-0.66 1.32 -1.32 2.64 -2 4 C-3.32 4 -4.64 4 -6 4 C-6.66 3.34 -7.32 2.68 -8 2 C-2.25 0 -2.25 0 0 0 Z " fill="#565656" transform="translate(116,25)"/>
<path d="M0 0 C0 0.99 0 1.98 0 3 C-1.32 3 -2.64 3 -4 3 C-4.33 4.32 -4.66 5.64 -5 7 C-5.33 5.68 -5.66 4.36 -6 3 C-2.25 0 -2.25 0 0 0 Z " fill="#020403" transform="translate(36,21)"/>
<path d="M0 0 C0.66 0.33 1.32 0.66 2 1 C2 1.99 2 2.98 2 4 C-0.31 4.33 -2.62 4.66 -5 5 C-3.35 3.35 -1.7 1.7 0 0 Z " fill="#323232" transform="translate(93,134)"/>
<path d="M0 0 C2.64 0.33 5.28 0.66 8 1 C8 1.66 8 2.32 8 3 C6.02 3.33 4.04 3.66 2 4 C2 3.34 2 2.68 2 2 C1.34 1.34 0.68 0.68 0 0 Z " fill="#1D2220" transform="translate(97,131)"/>
<path d="M0 0 C0.66 0.33 1.32 0.66 2 1 C2.33 2.32 2.66 3.64 3 5 C-0.3 4.67 -3.6 4.34 -7 4 C-7 3.67 -7 3.34 -7 3 C-5.5459375 2.814375 -5.5459375 2.814375 -4.0625 2.625 C-2.5465625 2.315625 -2.5465625 2.315625 -1 2 C-0.67 1.34 -0.34 0.68 0 0 Z " fill="#2C4538" transform="translate(108,96)"/>
<path d="M0 0 C0.66 0 1.32 0 2 0 C2 0.66 2 1.32 2 2 C1.34 2 0.68 2 0 2 C0 1.34 0 0.68 0 0 Z " fill="#555555" transform="translate(110,143)"/>
<path d="M0 0 C0.66 0 1.32 0 2 0 C2 0.66 2 1.32 2 2 C1.34 2 0.68 2 0 2 C0 1.34 0 0.68 0 0 Z " fill="#4E4E4E" transform="translate(22,131)"/>
<path d="M0 0 C0.66 0 1.32 0 2 0 C2 0.66 2 1.32 2 2 C1.34 2 0.68 2 0 2 C0 1.34 0 0.68 0 0 Z " fill="#4D4D4D" transform="translate(148,51)"/>
<path d="M0 0 C0.66 0 1.32 0 2 0 C2 0.66 2 1.32 2 2 C1.34 2 0.68 2 0 2 C0 1.34 0 0.68 0 0 Z " fill="#424242" transform="translate(17,22)"/>
<path d="M0 0 C0.66 0 1.32 0 2 0 C2 0.66 2 1.32 2 2 C1.34 2 0.68 2 0 2 C0 1.34 0 0.68 0 0 Z " fill="#484848" transform="translate(116,9)"/>
<path d="M0 0 C0.66 0 1.32 0 2 0 C2 0.66 2 1.32 2 2 C1.34 2 0.68 2 0 2 C0 1.34 0 0.68 0 0 Z " fill="#4D4D4D" transform="translate(51,0)"/>
<path d="M0 0 C0.33 0.66 0.66 1.32 1 2 C0.34 1.67 -0.32 1.34 -1 1 C-0.67 0.67 -0.34 0.34 0 0 Z " fill="#444444" transform="translate(98,148)"/>
<path d="M0 0 C0.66 0 1.32 0 2 0 C1.67 0.66 1.34 1.32 1 2 C0.67 1.34 0.34 0.68 0 0 Z " fill="#474747" transform="translate(121,136)"/>
<path d="M0 0 C0.33 0.66 0.66 1.32 1 2 C0.34 1.67 -0.32 1.34 -1 1 C-0.67 0.67 -0.34 0.34 0 0 Z " fill="#555555" transform="translate(1,97)"/>
<path d="M0 0 C0.33 0.66 0.66 1.32 1 2 C0.34 1.67 -0.32 1.34 -1 1 C-0.67 0.67 -0.34 0.34 0 0 Z " fill="#3F3F3F" transform="translate(10,32)"/>
<path d="M0 0 C0.66 0.66 1.32 1.32 2 2 C1.34 2 0.68 2 0 2 C0 1.34 0 0.68 0 0 Z " fill="#454545" transform="translate(136,27)"/>
<path d="M0 0 C0.66 0.66 1.32 1.32 2 2 C1.34 2 0.68 2 0 2 C0 1.34 0 0.68 0 0 Z " fill="#555555" transform="translate(127,17)"/>
<path d="M0 0 C2 1 2 1 2 1 Z " fill="#474747" transform="translate(32,140)"/>
<path d="M0 0 C2 1 2 1 2 1 Z " fill="#000000" transform="translate(32,135)"/>
<path d="" fill="#616161" transform="translate(0,0)"/>
<path d="" fill="#4B4B4B" transform="translate(0,0)"/>
<path d="" fill="#000000" transform="translate(0,0)"/>
<path d="M0 0 C2 1 2 1 2 1 Z " fill="#5E5E5E" transform="translate(143,39)"/>
<path d="M0 0 C2 1 2 1 2 1 Z " fill="#585858" transform="translate(27,13)"/>
<path d="" fill="#4B4B4B" transform="translate(0,0)"/>
<path d="M0 0 C2 1 2 1 2 1 Z " fill="#6E6E6E" transform="translate(104,3)"/>
<path d="" fill="#333333" transform="translate(0,0)"/>
<path d="" fill="#555555" transform="translate(0,0)"/>
</svg>
