<?xml version="1.0" standalone="no"?>
<!DOCTYPE svg PUBLIC "-//W3C//DTD SVG 20010904//EN"
 "http://www.w3.org/TR/2001/REC-SVG-20010904/DTD/svg10.dtd">
<svg version="1.0" xmlns="http://www.w3.org/2000/svg"
 width="150.000000pt" height="150.000000pt" viewBox="0 0 150.000000 150.000000"
 preserveAspectRatio="xMidYMid meet">

<g transform="translate(0.000000,150.000000) scale(0.100000,-0.100000)"
fill="#000000" stroke="none">
<path d="M617 1382 c-26 -15 -50 -35 -53 -45 -8 -26 -27 -8 -19 20 6 24 5 24
-35 -8 -22 -18 -43 -44 -47 -57 -5 -22 -7 -22 -15 -7 -6 9 -7 26 -4 38 3 14
-7 7 -33 -23 -31 -36 -41 -42 -52 -33 -29 24 -58 -24 -62 -100 l-2 -28 -18 22
c-10 12 -19 20 -20 18 -12 -17 -27 -65 -27 -86 l0 -26 -24 23 c-35 32 -56 21
-56 -29 0 -22 5 -52 11 -67 10 -27 9 -27 -8 -12 -17 16 -18 14 -17 -38 1 -30
7 -61 14 -69 18 -22 -8 -20 -32 2 -19 17 -19 16 -14 -10 3 -15 9 -39 12 -54 3
-16 13 -36 21 -45 22 -24 -3 -25 -37 -1 -17 12 -22 13 -14 3 7 -8 15 -29 18
-46 4 -18 16 -40 26 -49 25 -23 16 -37 -15 -25 l-24 9 21 -37 c11 -20 33 -48
47 -60 l26 -24 -32 4 c-28 4 -31 2 -21 -11 29 -39 63 -71 75 -71 7 0 13 -4 13
-10 0 -5 -14 -10 -31 -10 l-31 0 30 -25 c28 -23 29 -28 20 -62 -12 -49 7 -109
43 -135 35 -27 102 -35 131 -16 33 21 58 29 58 18 0 -5 -12 -16 -27 -23 -26
-14 -26 -14 30 -21 31 -4 66 -4 78 -1 18 6 19 5 10 -13 -6 -11 -16 -23 -23
-25 -7 -3 11 -6 40 -6 29 -1 62 4 73 9 24 13 25 -2 2 -25 -15 -16 -13 -16 33
-10 27 4 56 14 65 21 32 28 42 4 12 -29 -17 -18 -15 -18 37 2 30 12 60 28 67
37 16 21 27 0 13 -26 l-11 -21 39 20 c22 11 50 33 61 48 l22 28 -3 -37 -4 -36
34 29 c20 18 43 29 56 27 33 -4 109 38 134 76 13 18 26 50 29 70 5 29 8 34 19
25 8 -6 14 -19 14 -28 1 -9 10 7 21 34 11 28 17 60 14 73 -7 31 11 28 28 -5
14 -26 15 -26 22 35 4 33 4 66 0 71 -13 21 14 11 29 -11 15 -21 16 -20 16 33
0 33 -6 63 -16 77 -19 27 0 31 28 5 18 -16 19 -15 12 28 -3 24 -13 54 -20 67
-13 20 -13 22 4 22 10 0 24 -6 31 -12 8 -9 8 -3 -2 21 -13 32 -13 37 10 82 33
62 25 101 -25 133 -21 13 -48 35 -61 50 -14 14 -31 26 -38 26 -8 0 -11 5 -7
11 3 6 18 9 33 6 24 -5 22 -1 -18 34 -24 21 -52 39 -63 39 -10 0 -16 5 -13 10
3 6 18 10 33 10 24 0 22 3 -23 30 -27 16 -59 30 -70 30 -19 1 -19 2 3 17 l23
16 -32 14 c-17 7 -48 13 -68 13 l-36 1 23 19 23 19 -28 7 c-57 12 -63 16 -63
35 0 10 -9 28 -21 40 -17 17 -29 20 -62 16 -61 -7 -119 -22 -144 -36 -19 -9
-23 -9 -23 2 0 7 5 18 12 25 16 16 11 15 -45 -4 -26 -9 -54 -26 -62 -37 -15
-21 -15 -21 -15 4 0 14 5 30 12 37 18 18 8 14 -45 -16z m-177 -152 c21 -11 51
-36 67 -56 24 -32 28 -48 31 -113 l4 -76 66 -67 c37 -38 74 -68 84 -68 36 0
16 -37 -57 -103 -72 -65 -103 -77 -92 -35 4 14 -13 39 -64 92 l-69 73 -48 -4
c-97 -9 -189 69 -199 171 -3 32 -2 56 4 56 5 0 27 -18 48 -41 61 -62 70 -65
114 -35 44 31 81 78 81 104 0 10 -20 38 -45 62 -25 24 -45 48 -45 52 0 16 82
8 120 -12z m435 -568 c0 -12 28 -50 69 -91 58 -61 73 -71 103 -71 71 0 137
-60 148 -134 19 -126 -112 -222 -225 -164 -59 30 -90 77 -90 137 0 43 -5 50
-66 114 -36 37 -74 67 -84 67 -39 0 -25 28 48 98 78 73 97 82 97 44z"/>
<path d="M995 380 c-45 -50 35 -130 85 -85 24 22 26 67 4 89 -22 22 -67 20
-89 -4z"/>
</g>
</svg>
